<svg width="72" height="72" viewBox="0 0 72 72" fill="none" xmlns="http://www.w3.org/2000/svg">
<path d="M4.64516 58.0645H32.5161V23.2258H4.64516V58.0645ZM6.96774 25.5484H30.1935V55.7419H6.96774V25.5484Z" fill="#586C7F"/>
<path d="M22.0645 33.162V30.1935H19.7419V32.5161H17.4194V30.1935H15.0968V32.5161H12.7742V48.7742H15.0968V51.0968H17.4194V48.7742H19.7419V51.0968H22.0645V48.1283C23.4464 47.3226 24.3871 45.8409 24.3871 44.129C24.3871 42.7438 23.7775 41.4963 22.8113 40.6452C23.7775 39.794 24.3871 38.5466 24.3871 37.1613C24.3871 35.4494 23.4464 33.9677 22.0645 33.162ZM19.7419 46.4516H15.0968V41.8064H19.7419C21.0229 41.8064 22.0645 42.8481 22.0645 44.129C22.0645 45.41 21.0229 46.4516 19.7419 46.4516ZM19.7419 39.4839H15.0968V34.8387H19.7419C21.0229 34.8387 22.0645 35.8803 22.0645 37.1613C22.0645 38.4422 21.0229 39.4839 19.7419 39.4839Z" fill="#586C7F"/>
<path d="M15.0968 65.0323H22.0645V67.3548H15.0968V65.0323Z" fill="#586C7F"/>
<path d="M13.9355 13.9355H23.2258V16.2581H13.9355V13.9355Z" fill="#586C7F"/>
<path d="M25.5484 13.9355H27.871V16.2581H25.5484V13.9355Z" fill="#586C7F"/>
<path d="M9.29033 13.9355H11.6129V16.2581H9.29033V13.9355Z" fill="#586C7F"/>
<path d="M41.8065 32.5161H44.129V30.1935H46.4516V32.5161H48.7742V29.5477C50.1561 28.7419 51.0968 27.2603 51.0968 25.5484C51.0968 24.1631 50.4872 22.9156 49.521 22.0645C50.4872 21.2134 51.0968 19.9659 51.0968 18.5806C51.0968 16.8688 50.1561 15.3871 48.7742 14.5813V11.6129H46.4516V13.9355H44.129V11.6129H41.8065V13.9355H39.4839V30.1935H41.8065V32.5161ZM41.8065 16.2581H46.4516C47.7325 16.2581 48.7742 17.2997 48.7742 18.5806C48.7742 19.8616 47.7325 20.9032 46.4516 20.9032H41.8065V16.2581ZM41.8065 23.2258H46.4516C47.7325 23.2258 48.7742 24.2674 48.7742 25.5484C48.7742 26.8293 47.7325 27.871 46.4516 27.871H41.8065V23.2258Z" fill="#586C7F"/>
<path d="M64.2974 33.2164C66.227 29.9389 67.3548 26.1347 67.3548 22.0645C67.3548 9.89762 57.4572 0 45.2903 0C38.1253 0 31.4467 3.46062 27.3017 9.29032H5.80645C2.60496 9.29032 0 11.8953 0 15.0968V66.1936C0 69.395 2.60496 72 5.80645 72H31.3548C34.0222 72 36.2529 70.1815 36.9299 67.7251C40.7007 70.4917 45.2416 72 49.9355 72C62.1024 72 72 62.1024 72 49.9355C72 43.4577 69.2022 37.4227 64.2974 33.2164ZM45.2903 2.32258C56.1763 2.32258 65.0323 11.1786 65.0323 22.0645C65.0323 32.9505 56.1763 41.8064 45.2903 41.8064C42.2374 41.8064 39.2865 41.1073 36.5177 39.73L34.8387 38.8942V60.3871H2.32258V20.9032H34.8387V36.0011L35.336 36.347C38.2738 38.3991 41.7157 39.4839 45.2903 39.4839C54.8953 39.4839 62.7097 31.6695 62.7097 22.0645C62.7097 12.4595 54.8953 4.64516 45.2903 4.64516C40.7104 4.64516 36.4366 6.3905 33.1665 9.57951C32.5961 9.39125 31.9865 9.29032 31.3548 9.29032H30.2423C33.9745 4.89125 39.4515 2.32258 45.2903 2.32258ZM51.0968 55.7419H46.4516V51.0968H51.0968C52.3777 51.0968 53.4194 52.1384 53.4194 53.4194C53.4194 54.7003 52.3777 55.7419 51.0968 55.7419ZM51.0968 48.7742H46.4516V44.129H51.0968C52.3777 44.129 53.4194 45.1707 53.4194 46.4516C53.4194 47.7325 52.3777 48.7742 51.0968 48.7742ZM46.4516 58.0645V60.3871H48.7742V58.0645H51.0968V60.3871H53.4194V57.4187C54.8012 56.6129 55.7419 55.1312 55.7419 53.4194C55.7419 52.0341 55.1324 50.7866 54.1661 49.9355C55.1324 49.0844 55.7419 47.8369 55.7419 46.4516C55.7419 44.7874 54.8545 43.3357 53.5345 42.5158C55.865 41.5728 57.9891 40.2397 59.8473 38.6027C63.1418 41.4764 65.0323 45.5461 65.0323 49.9355C65.0323 58.2596 58.2596 65.0323 49.9355 65.0323C44.6932 65.0323 39.9471 62.3729 37.1613 57.9205V42.5623C39.3977 43.4577 41.7344 43.9493 44.129 44.0746V58.0645H46.4516ZM35.2589 10.802C38.0266 8.31956 41.5405 6.96774 45.2903 6.96774C53.6144 6.96774 60.3871 13.7404 60.3871 22.0645C60.3871 30.3886 53.6144 37.1613 45.2903 37.1613C42.3928 37.1613 39.5956 36.3391 37.1613 34.7758V15.0968C37.1613 13.3968 36.4275 11.8647 35.2589 10.802ZM5.80645 11.6129H31.3548C33.2754 11.6129 34.8387 13.1762 34.8387 15.0968V18.5806H2.32258V15.0968C2.32258 13.1762 3.8859 11.6129 5.80645 11.6129ZM31.3548 69.6774H5.80645C3.8859 69.6774 2.32258 68.1141 2.32258 66.1936V62.7097H34.8387V66.1936C34.8387 68.1141 33.2754 69.6774 31.3548 69.6774ZM49.9355 69.6774C45.2506 69.6774 40.7404 67.9888 37.1613 64.9359V61.7599C40.4212 65.3095 44.9898 67.3548 49.9355 67.3548C59.5405 67.3548 67.3548 59.5405 67.3548 49.9355C67.3548 44.928 65.2262 40.2828 61.5087 36.973C62.0326 36.4043 62.5237 35.8095 62.9858 35.188C67.2375 38.944 69.6774 44.2407 69.6774 49.9355C69.6774 60.8214 60.8214 69.6774 49.9355 69.6774Z" fill="#586C7F"/>
</svg>
