<svg xmlns="http://www.w3.org/2000/svg" viewBox="0 0 343.285 475.077">
  <defs>
    <style>
      .cls-1 {
        fill: #fff;
      }
    </style>
  </defs>
  <g id="bitcoin-logo" transform="translate(-65.893)">
    <path id="Path_4" data-name="Path 4" class="cls-1" d="M395.655,249.236q-16.555-21.408-49.964-29.4,42.543-21.7,37.4-73.666-1.716-18.845-10.424-32.68a65.406,65.406,0,0,0-23.559-22.266,129.675,129.675,0,0,0-32.264-12.85,254.546,254.546,0,0,0-39.972-6.423V0H232.912V69.949q-11.42,0-34.829.571V0h-43.97V71.948q-9.425.287-27.694.288l-60.526-.288v46.824H97.582q21.7,0,25.41,19.414v81.942a29.019,29.019,0,0,1,4.57.288h-4.57V335.185q-2.282,14.557-16.558,14.562H74.747L65.9,402H123q5.425,0,15.7.134t15.415.144v72.8h43.977V403.13q11.988.293,34.829.288v71.659h43.965v-72.8a341.81,341.81,0,0,0,41.538-4.281,169.051,169.051,0,0,0,34.69-9.855q16.554-6.705,27.688-16.7a78.818,78.818,0,0,0,18.421-25.41q7.269-15.42,9.271-35.693Q412.222,270.657,395.655,249.236ZM198.938,121.9q2,0,11.278-.144t15.418-.288q6.14-.141,16.563.715a157.532,157.532,0,0,1,17.556,2.284,97.8,97.8,0,0,1,15.7,4.71,42.554,42.554,0,0,1,13.7,7.993,39.653,39.653,0,0,1,8.706,11.993,37.432,37.432,0,0,1,3.572,16.7,39.719,39.719,0,0,1-2.566,14.565,27.44,27.44,0,0,1-7.706,10.992,78.091,78.091,0,0,1-10.568,7.71,48.38,48.38,0,0,1-13.846,5.28q-8.418,2-14.7,3.14a120.352,120.352,0,0,1-15.7,1.571q-9.425.426-14.277.572t-13.278,0q-8.427-.141-9.851-.144V121.9h0ZM319,316.331A40.594,40.594,0,0,1,312,327.758a39.653,39.653,0,0,1-11.28,8.559,96.731,96.731,0,0,1-13.559,6,109.15,109.15,0,0,1-15.844,4q-9.291,1.715-16.283,2.426t-16.7,1.144q-9.7.42-15.131.425t-13.706-.145q-8.284-.133-10.565-.137V253.521q2.281,0,13.562-.287t18.415-.281q7.137,0,19.705.856a168.345,168.345,0,0,1,21.128,2.562,138.906,138.906,0,0,1,18.7,5.284,54.227,54.227,0,0,1,16.419,8.706,42.849,42.849,0,0,1,10.561,13.134A40.784,40.784,0,0,1,319,316.331Z"/>
  </g>
</svg>
