<svg xmlns="http://www.w3.org/2000/svg" viewBox="0 0 512 493.699">
  <defs>
    <style>
      .cls-1 {
        fill: #586c7f;
      }
    </style>
  </defs>
  <g id="calendar" transform="translate(0 0)">
    <path id="Path_1" data-name="Path 1" class="cls-1" d="M7.5,364.832a7.5,7.5,0,0,0,7.5-7.5V138.891H458.129v82.441a7.5,7.5,0,0,0,15,0V73.109a45.653,45.653,0,0,0-45.6-45.6H407.863V18.219A18.238,18.238,0,0,0,389.645,0H375.711A18.237,18.237,0,0,0,357.5,18.219v9.289H307.754V18.219A18.238,18.238,0,0,0,289.535,0H275.6a18.237,18.237,0,0,0-18.215,18.219v9.289H207.641V18.219A18.238,18.238,0,0,0,189.422,0h-13.93a18.238,18.238,0,0,0-18.219,18.219v9.289H107.531V18.219A18.238,18.238,0,0,0,89.312,0H75.383A18.238,18.238,0,0,0,57.164,18.219v9.289H45.6A45.654,45.654,0,0,0,0,73.109V357.332a7.5,7.5,0,0,0,7.5,7.5Zm365-346.613A3.224,3.224,0,0,1,375.715,15h13.934a3.221,3.221,0,0,1,3.215,3.219V54.656a3.221,3.221,0,0,1-3.215,3.219H375.715a3.222,3.222,0,0,1-3.219-3.219Zm-100.109,0A3.221,3.221,0,0,1,275.6,15h13.934a3.224,3.224,0,0,1,3.219,3.219V54.656a3.224,3.224,0,0,1-3.219,3.219H275.6a3.218,3.218,0,0,1-3.215-3.219Zm-100.113,0A3.224,3.224,0,0,1,175.493,15h13.934a3.224,3.224,0,0,1,3.219,3.219V54.656a3.224,3.224,0,0,1-3.219,3.219H175.493a3.222,3.222,0,0,1-3.219-3.219Zm-100.109,0A3.224,3.224,0,0,1,75.384,15H89.317a3.221,3.221,0,0,1,3.215,3.219V54.656a3.221,3.221,0,0,1-3.215,3.219H75.384a3.222,3.222,0,0,1-3.219-3.219ZM45.6,42.508H57.165V54.656A18.238,18.238,0,0,0,75.384,72.875H89.317a18.237,18.237,0,0,0,18.215-18.219V42.508h49.746V54.656a18.237,18.237,0,0,0,18.215,18.219h13.934a18.238,18.238,0,0,0,18.219-18.219V42.508h49.742V54.656a18.238,18.238,0,0,0,18.219,18.219H289.54a18.237,18.237,0,0,0,18.215-18.219V42.508H357.5V54.656a18.238,18.238,0,0,0,18.219,18.219h13.934a18.237,18.237,0,0,0,18.215-18.219V42.508h19.668a30.635,30.635,0,0,1,30.6,30.6v50.781H15V73.11A30.635,30.635,0,0,1,45.6,42.508Zm0,0"/>
    <path id="Path_2" data-name="Path 2" class="cls-1" d="M84.91,434.582h-65.4A4.516,4.516,0,0,1,15,430.07V391.512a7.5,7.5,0,0,0-15,0V430.07a19.535,19.535,0,0,0,19.512,19.512h65.4a7.5,7.5,0,0,0,0-15Zm0,0"/>
    <path id="Path_3" data-name="Path 3" class="cls-1" d="M84.66,160.762H58.59a7.5,7.5,0,0,0,0,15H84.66a7.5,7.5,0,0,0,0-15Zm0,0"/>
    <path id="Path_4" data-name="Path 4" class="cls-1" d="M138.707,175.762h26.07a7.5,7.5,0,0,0,0-15h-26.07a7.5,7.5,0,0,0,0,15Zm0,0"/>
    <path id="Path_5" data-name="Path 5" class="cls-1" d="M218.824,175.762H244.89a7.5,7.5,0,0,0,0-15H218.824a7.5,7.5,0,0,0,0,15Zm0,0"/>
    <path id="Path_6" data-name="Path 6" class="cls-1" d="M298.938,175.762h26.07a7.5,7.5,0,0,0,0-15h-26.07a7.5,7.5,0,0,0,0,15Zm0,0"/>
    <path id="Path_7" data-name="Path 7" class="cls-1" d="M405.121,160.762H379.055a7.5,7.5,0,0,0,0,15h26.066a7.5,7.5,0,0,0,0-15Zm0,0"/>
    <path id="Path_8" data-name="Path 8" class="cls-1" d="M84.66,198.477H58.59a7.5,7.5,0,0,0,0,15H84.66a7.5,7.5,0,0,0,0-15Zm0,0"/>
    <path id="Path_9" data-name="Path 9" class="cls-1" d="M138.707,213.477h26.07a7.5,7.5,0,0,0,0-15h-26.07a7.5,7.5,0,1,0,0,15Zm0,0"/>
    <path id="Path_10" data-name="Path 10" class="cls-1" d="M218.824,213.477H244.89a7.5,7.5,0,1,0,0-15H218.824a7.5,7.5,0,0,0,0,15Zm0,0"/>
    <path id="Path_11" data-name="Path 11" class="cls-1" d="M298.938,213.477h26.07a7.5,7.5,0,0,0,0-15h-26.07a7.5,7.5,0,0,0,0,15Zm0,0"/>
    <path id="Path_12" data-name="Path 12" class="cls-1" d="M405.121,198.477H379.055a7.5,7.5,0,0,0,0,15h26.066a7.5,7.5,0,0,0,0-15Zm0,0"/>
    <path id="Path_13" data-name="Path 13" class="cls-1" d="M138.891,360.715l38.563,38.563a29.536,29.536,0,0,0,41.766,0l105.6-105.605a29.535,29.535,0,0,0-41.77-41.77l-84.719,84.719-17.68-17.676a29.534,29.534,0,1,0-41.766,41.77ZM149.5,329.551a14.551,14.551,0,0,1,20.555,0l22.98,22.98a7.5,7.5,0,0,0,10.605,0l90.023-90.02a14.534,14.534,0,1,1,20.555,20.555l-105.6,105.6a14.532,14.532,0,0,1-20.555,0L149.5,350.106a14.549,14.549,0,0,1,0-20.555Zm0,0"/>
    <path id="Path_14" data-name="Path 14" class="cls-1" d="M473.129,315.359V255.511a7.5,7.5,0,0,0-15,0v50.281A99.486,99.486,0,0,0,321.563,434.582H119.086a7.5,7.5,0,0,0,0,15H329.871A99.472,99.472,0,1,0,473.128,315.359ZM412.5,478.7A84.5,84.5,0,1,1,497,394.2,84.6,84.6,0,0,1,412.5,478.7Zm0,0"/>
    <path id="Path_15" data-name="Path 15" class="cls-1" d="M412.5,320.527A73.668,73.668,0,1,0,486.16,394.2,73.753,73.753,0,0,0,412.5,320.527Zm6.715,131.938a7.479,7.479,0,0,0,.785-3.324V440a7.5,7.5,0,1,0-15,0v9.137a7.427,7.427,0,0,0,.785,3.324,58.757,58.757,0,0,1-51.555-51.555,7.415,7.415,0,0,0,3.324.785h9.133a7.5,7.5,0,0,0,0-15h-9.133a7.467,7.467,0,0,0-3.324.785,58.757,58.757,0,0,1,51.555-51.555A7.427,7.427,0,0,0,405,339.25v9.137a7.5,7.5,0,0,0,15,0V339.25a7.479,7.479,0,0,0-.785-3.324,58.757,58.757,0,0,1,51.555,51.555,7.479,7.479,0,0,0-3.324-.785H458.3a7.5,7.5,0,0,0,0,15h9.137a7.427,7.427,0,0,0,3.324-.785A58.761,58.761,0,0,1,419.211,452.465Zm0,0"/>
    <path id="Path_16" data-name="Path 16" class="cls-1" d="M429.027,386.7H420V379a7.5,7.5,0,1,0-15,0V394.2a7.5,7.5,0,0,0,7.5,7.5h16.531a7.5,7.5,0,0,0,0-15Zm0,0"/>
  </g>
</svg>
