<svg width="72" height="72" viewBox="0 0 72 72" fill="none" xmlns="http://www.w3.org/2000/svg">
<g clip-path="url(#clip0)">
<path d="M54.6233 19.3758V16.2507H52.3065V11.6169H47.6727V3.50792H45.3559V11.6169H43.039V0.0326233H40.7222V11.6169H38.4053V3.50792H36.0884V11.6169H31.4547V16.2507H29.1378V32.4687H9.69847L8.54004 37.1024H0L4.63373 69.5385H0.177045V71.8554H71.9998V14.7421L54.6233 19.3758ZM69.6829 24.3597H66.2076V18.6858L69.6829 17.7587V24.3597ZM3.66422 46.3699L3.33275 44.053H8.28607V46.3699H3.66422ZM10.6029 44.053H15.2367V46.3699H10.6029V44.053ZM43.039 41.7362H38.4053V39.4193H43.039V41.7362ZM36.0884 41.7362H31.4547V39.4193H36.0884V41.7362ZM29.1378 41.7362H24.5041V39.4193H29.1378V41.7362ZM22.1872 41.7362H17.5535V39.4193H22.1872V41.7362ZM15.2367 41.7362H10.6029V39.4193H15.2367V41.7362ZM17.5535 44.053H22.1872V46.3699H17.5535V44.053ZM24.5041 44.053H29.1378V46.3699H24.5041V44.053ZM31.4547 44.053H36.0884V46.3699H31.4547V44.053ZM38.4053 44.053H43.039V46.3699H38.4053V44.053ZM40.4687 37.1024L39.3103 32.4687H36.0884V18.5675H52.3065V69.5385H45.3559V37.1024H40.4687ZM54.6233 26.6766H58.0986V31.3103H54.6233V26.6766ZM60.4155 26.6766H63.8908V31.3103H60.4155V26.6766ZM60.4155 24.3597V20.2299L63.8908 19.3029V24.3597H60.4155ZM66.2076 26.6766H69.6829V31.3103H66.2076V26.6766ZM58.0986 20.8471V24.3597H54.6233V21.7741L58.0986 20.8471ZM33.7716 13.9338H49.9896V16.2507H33.7716V13.9338ZM31.4547 18.5675H33.7716V32.4687H31.4547V18.5675ZM11.508 34.7856H37.5008L38.08 37.1024H10.9287L11.508 34.7856ZM8.28607 39.4193V41.7362H3.00242L2.67152 39.4193H8.28607ZM3.99568 48.6868H43.039V69.5385H40.7222V60.2711H31.4547V69.5385H29.1378V60.2711H19.8704V69.5385H17.5535V60.2711H8.28607V69.5385H6.97378L3.99568 48.6868ZM38.4053 69.5385H33.7716V62.5879H38.4053V69.5385ZM26.821 69.5385H22.1872V62.5879H26.821V69.5385ZM15.2367 69.5385H10.6029V62.5879H15.2367V69.5385ZM54.6233 69.5385V33.6271H69.6829V69.5385H54.6233Z" fill="#586C7F"/>
<path d="M8.28607 51.0036H10.6029V53.3205H8.28607V51.0036Z" fill="#586C7F"/>
<path d="M15.2367 51.0036H17.5535V53.3205H15.2367V51.0036Z" fill="#586C7F"/>
<path d="M22.1873 51.0036H24.5041V53.3205H22.1873V51.0036Z" fill="#586C7F"/>
<path d="M29.1378 51.0036H31.4547V53.3205H29.1378V51.0036Z" fill="#586C7F"/>
<path d="M36.0884 51.0036H38.4053V53.3205H36.0884V51.0036Z" fill="#586C7F"/>
<path d="M8.28607 55.6373H10.6029V57.9542H8.28607V55.6373Z" fill="#586C7F"/>
<path d="M15.2367 55.6373H17.5535V57.9542H15.2367V55.6373Z" fill="#586C7F"/>
<path d="M22.1873 55.6373H24.5041V57.9542H22.1873V55.6373Z" fill="#586C7F"/>
<path d="M29.1378 55.6373H31.4547V57.9542H29.1378V55.6373Z" fill="#586C7F"/>
<path d="M36.0884 55.6373H38.4053V57.9542H36.0884V55.6373Z" fill="#586C7F"/>
<path d="M38.4053 20.8844H40.7222V23.2013H38.4053V20.8844Z" fill="#586C7F"/>
<path d="M43.039 20.8844H45.3559V23.2013H43.039V20.8844Z" fill="#586C7F"/>
<path d="M47.6727 20.8844H49.9896V23.2013H47.6727V20.8844Z" fill="#586C7F"/>
<path d="M38.4053 25.5181H40.7222V27.835H38.4053V25.5181Z" fill="#586C7F"/>
<path d="M43.039 25.5181H45.3559V27.835H43.039V25.5181Z" fill="#586C7F"/>
<path d="M47.6727 25.5181H49.9896V27.835H47.6727V25.5181Z" fill="#586C7F"/>
<path d="M56.9402 35.944H59.257V38.2608H56.9402V35.944Z" fill="#586C7F"/>
<path d="M61.5739 35.944H63.8908V38.2608H61.5739V35.944Z" fill="#586C7F"/>
<path d="M66.2076 35.944H68.5245V38.2608H66.2076V35.944Z" fill="#586C7F"/>
<path d="M56.9402 40.5778H59.257V42.8946H56.9402V40.5778Z" fill="#586C7F"/>
<path d="M61.5739 40.5778H63.8908V42.8946H61.5739V40.5778Z" fill="#586C7F"/>
<path d="M66.2076 40.5778H68.5245V42.8946H66.2076V40.5778Z" fill="#586C7F"/>
<path d="M56.9402 53.3205H59.257V55.6374H56.9402V53.3205Z" fill="#586C7F"/>
<path d="M61.5739 53.3205H63.8908V55.6374H61.5739V53.3205Z" fill="#586C7F"/>
<path d="M66.2076 53.3205H68.5245V55.6374H66.2076V53.3205Z" fill="#586C7F"/>
<path d="M56.9402 57.9542H59.257V60.271H56.9402V57.9542Z" fill="#586C7F"/>
<path d="M61.5739 57.9542H63.8908V60.271H61.5739V57.9542Z" fill="#586C7F"/>
<path d="M66.2076 57.9542H68.5245V60.271H66.2076V57.9542Z" fill="#586C7F"/>
<path d="M43.039 30.1518H45.3559V32.4687H43.039V30.1518Z" fill="#586C7F"/>
<path d="M47.6727 30.1518H49.9896V32.4687H47.6727V30.1518Z" fill="#586C7F"/>
<path d="M47.6727 34.7856H49.9896V37.1024H47.6727V34.7856Z" fill="#586C7F"/>
<path d="M47.6727 39.4193H49.9896V41.7361H47.6727V39.4193Z" fill="#586C7F"/>
<path d="M47.6727 44.053H49.9896V46.3699H47.6727V44.053Z" fill="#586C7F"/>
<path d="M47.6727 48.6867H49.9896V51.0036H47.6727V48.6867Z" fill="#586C7F"/>
<path d="M47.6727 53.3205H49.9896V55.6374H47.6727V53.3205Z" fill="#586C7F"/>
</g>
<defs>
<clipPath id="clip0">
<rect width="72" height="72" fill="white"/>
</clipPath>
</defs>
</svg>
