<svg xmlns="http://www.w3.org/2000/svg" viewBox="0 0 512.001 341.334">
  <defs>
    <style>
      .cls-1 {
        fill: #fff;
      }
    </style>
  </defs>
  <g id="credit-card" transform="translate(0 -85.333)">
    <g id="Group_2" data-name="Group 2">
      <g id="Group_1" data-name="Group 1">
        <path id="Path_5" data-name="Path 5" class="cls-1" d="M458.667,85.333H53.333A53.408,53.408,0,0,0,0,138.667V373.334a53.407,53.407,0,0,0,53.333,53.333H458.666A53.407,53.407,0,0,0,512,373.334V138.667A53.406,53.406,0,0,0,458.667,85.333Zm32,288a32.039,32.039,0,0,1-32,32H53.333a32.039,32.039,0,0,1-32-32V138.667a32.039,32.039,0,0,1,32-32H458.666a32.039,32.039,0,0,1,32,32V373.333Z"/>
      </g>
    </g>
    <g id="Group_4" data-name="Group 4">
      <g id="Group_3" data-name="Group 3">
        <path id="Path_6" data-name="Path 6" class="cls-1" d="M501.333,149.333H10.667A10.671,10.671,0,0,0,0,160v64a10.671,10.671,0,0,0,10.667,10.667H501.334A10.671,10.671,0,0,0,512,224V160A10.673,10.673,0,0,0,501.333,149.333Zm-10.666,64H21.333V170.666H490.666v42.667Z"/>
      </g>
    </g>
    <g id="Group_6" data-name="Group 6">
      <g id="Group_5" data-name="Group 5">
        <path id="Path_7" data-name="Path 7" class="cls-1" d="M202.667,298.667h-128a10.667,10.667,0,1,0,0,21.333h128a10.667,10.667,0,1,0,0-21.333Z"/>
      </g>
    </g>
    <g id="Group_8" data-name="Group 8">
      <g id="Group_7" data-name="Group 7">
        <path id="Path_8" data-name="Path 8" class="cls-1" d="M202.667,341.333h-128a10.667,10.667,0,1,0,0,21.334h128a10.667,10.667,0,0,0,0-21.334Z"/>
      </g>
    </g>
    <g id="Group_10" data-name="Group 10">
      <g id="Group_9" data-name="Group 9">
        <path id="Path_9" data-name="Path 9" class="cls-1" d="M416,277.333H394.667a32.039,32.039,0,0,0-32,32v21.333a32.039,32.039,0,0,0,32,32H416a32.039,32.039,0,0,0,32-32V309.333A32.039,32.039,0,0,0,416,277.333Zm10.667,53.334A10.671,10.671,0,0,1,416,341.334H394.667A10.671,10.671,0,0,1,384,330.667V309.334a10.671,10.671,0,0,1,10.667-10.667H416a10.671,10.671,0,0,1,10.667,10.667Z"/>
      </g>
    </g>
  </g>
</svg>
