<svg xmlns="http://www.w3.org/2000/svg" viewBox="0 0 548.173 475.087">
  <defs>
    <style>
      .cls-1 {
        fill: #fff;
      }
    </style>
  </defs>
  <g id="desktop-monitor" transform="translate(0 -36.543)">
    <path id="Path_10" data-name="Path 10" class="cls-1" d="M534.75,49.965a43.982,43.982,0,0,0-32.261-13.422H45.681A44.007,44.007,0,0,0,13.417,49.965,43.985,43.985,0,0,0,0,82.226V392.859a43.993,43.993,0,0,0,13.417,32.265,44,44,0,0,0,32.264,13.414H201a59.722,59.722,0,0,1-4.57,22.269,201.986,201.986,0,0,1-9.136,19.981q-4.563,8.572-4.565,12.56A18.544,18.544,0,0,0,201,511.63H347.178a18.549,18.549,0,0,0,18.275-18.282q0-3.7-4.571-12.415a209.458,209.458,0,0,1-9.134-20.267,60.178,60.178,0,0,1-4.569-22.128H502.5a45.813,45.813,0,0,0,45.676-45.679V82.226A43.967,43.967,0,0,0,534.75,49.965Zm-23.123,269.8a9.252,9.252,0,0,1-9.138,9.131H45.681a9.253,9.253,0,0,1-9.135-9.131V82.226a9.262,9.262,0,0,1,9.135-9.135H502.5a9.261,9.261,0,0,1,9.131,9.135V319.768Z"/>
  </g>
</svg>
