<svg xmlns="http://www.w3.org/2000/svg" viewBox="0 0 502.2 351.1">
  <defs>
    <style>
      .cls-1 {
        fill: #586c7f;
      }
    </style>
  </defs>
  <g id="euro" transform="translate(0 -75.55)">
    <g id="Group_2" data-name="Group 2">
      <g id="Group_1" data-name="Group 1">
        <path id="Path_32" data-name="Path 32" class="cls-1" d="M501.5,268.15c-1.8-13-15.2-23.4-40.3-31-20.3-6.1-46-9.8-74-10.4V120.05a9.34,9.34,0,0,0-2.1-6c-3.3-11.6-16.7-21-39.9-28-22.5-6.8-51.9-10.5-82.8-10.5-30.8,0-59.9,3.7-81.9,10.5-18.1,5.6-39.8,16-39.8,33.9a18.413,18.413,0,0,0,.3,3.3l1.1,45.6c-64.9-12.5-127.6,30.2-140,95.2a119.679,119.679,0,0,0,117.6,142,120.072,120.072,0,0,0,75.5-26.8c18.8,4.4,40.8,6.8,64.1,7,5.1,27.7,65.1,40.4,121.1,40.4,30.8,0,59.8-3.8,82-10.7,18.2-5.6,39.8-16.1,39.8-34V272.05A10.362,10.362,0,0,0,501.5,268.15Zm-315-163c20.2-6.2,47.2-9.7,76-9.7,28.6,0,56.6,3.5,77,9.7,21.7,6.6,26.4,13.4,26.4,14.8s-4.7,8.3-26.5,14.8c-20.3,6.1-48.3,9.7-76.9,9.7-27.6,0-53.8-3.2-73.7-9-21.5-6.2-27.5-13.1-28-15.3,0-.2,0-.3-.1-.3C160.8,118.45,165.4,111.65,186.5,105.15Zm180.7,39.8v25.6a8.094,8.094,0,0,0-1.3,4.8c0,1.3-4.7,8.2-26.5,14.8-20.3,6.1-48.4,9.7-77,9.7-24.7,0-48.9-2.6-68.1-7.5-.3-.1-.5-.1-.8-.2a118.077,118.077,0,0,0-31.3-17.7l-.7-28.2a110.791,110.791,0,0,0,21.6,8.3c21.7,6.3,49.8,9.7,79.3,9.7,30.9,0,60.3-3.7,82.7-10.5A108.391,108.391,0,0,0,367.2,144.95ZM186.8,360.05a99.67,99.67,0,1,1-67.1-173.4,102.523,102.523,0,0,1,29.6,4.4,100.589,100.589,0,0,1,68.2,75.1,104.58,104.58,0,0,1,2,20.1A99.435,99.435,0,0,1,186.8,360.05Zm25.4,2.2a120.747,120.747,0,0,0,19.2-32.9c8.5.7,17.5,1.2,26.7,1.3v1.8l.5,33.9A314.9,314.9,0,0,1,212.2,362.25Zm26.6-87.8c5.9.4,12,.6,18.2.7,0,.2.1.5.1.7l.6,34.7q-10.65-.15-20.7-.9a122.926,122.926,0,0,0,2.3-23.4A93.966,93.966,0,0,0,238.8,274.45Zm24.6-19.2h-.9c-9.6,0-18.9-.4-27.5-1a118.553,118.553,0,0,0-17.9-37.2,360.165,360.165,0,0,0,45.3,2.9c30.9,0,60.3-3.7,82.8-10.5a128.542,128.542,0,0,0,22-9v26.5C324.2,228.15,279.8,237.15,263.4,255.25Zm13.4,15.4c1-2.8,8.3-9.3,28.8-15.1,19.5-5.5,44.9-8.5,71.6-8.5h1.3c28.6,0,56.6,3.3,77,9.5,21.1,6.4,26.1,12.8,26.4,14.5v.1c-.1,1.5-5.1,8.4-27.3,15-20.5,6.1-47.5,9.4-76.1,9.4-27,0-52.8-3.1-72.6-8.6-19.1-5.4-26.8-11.5-28.7-14.6A8.465,8.465,0,0,0,276.8,270.65Zm205.4,111.3c0,1.4-4.5,8.3-25.7,14.9-20.3,6.3-47.3,9.8-76.1,9.8-28.9,0-55.9-3.4-75.9-9.5-21.2-6.5-25.5-13.2-25.5-14.7v-.2l-.5-28.9c23.8,12.1,63.5,17.6,99.9,17.6,30.9,0,60.1-3.7,82.5-10.5a116.532,116.532,0,0,0,21.3-8.8v30.3Zm-.9-55.4c0,1.4-4.6,8.2-26.2,14.8-20.5,6.2-47.7,9.6-76.7,9.6-54.9,0-92.1-12.3-100.3-22l-.2-8.6-.4-22.9a116.491,116.491,0,0,0,22.8,8.7c21.5,6,49.2,9.4,78,9.4,30.4,0,59.4-3.6,81.7-10.2a114.448,114.448,0,0,0,22.1-8.8v25.7h.1C482.2,323.55,481.3,325.05,481.3,326.55Z"/>
      </g>
    </g>
    <g id="Group_4" data-name="Group 4">
      <g id="Group_3" data-name="Group 3">
        <path id="Path_33" data-name="Path 33" class="cls-1" d="M169.6,339.75a10.023,10.023,0,0,0-12.9-5.8v-.1a51.023,51.023,0,0,1-54.4-11.7,32.922,32.922,0,0,1-7.1-9.1h51.4a10,10,0,0,0,0-20H87.9a40.456,40.456,0,0,1-.3-11h64.2a10,10,0,0,0,0-20H93.5a58.94,58.94,0,0,1,8.7-11.8,51.034,51.034,0,0,1,54.4-11.5,9.972,9.972,0,1,0,7.2-18.6A71.044,71.044,0,0,0,88,236.25a68.727,68.727,0,0,0-16.5,25.9H57.3a10,10,0,0,0,0,20h10a67.369,67.369,0,0,0,.2,11H57.3a10,10,0,0,0,0,20H72.6A67.217,67.217,0,0,0,88,336.45a71,71,0,0,0,75.8,16.2A10.023,10.023,0,0,0,169.6,339.75Z"/>
      </g>
    </g>
  </g>
</svg>
