<svg width="72" height="72" viewBox="0 0 72 72" fill="none" xmlns="http://www.w3.org/2000/svg">
<g clip-path="url(#clip0)">
<path d="M26.9127 13.4989C25.4265 13.9241 24.3871 15.302 24.3871 16.8489V32.5161H26.7097V16.8489C26.7097 16.3335 27.0556 15.8736 27.5517 15.7319L34.8387 13.6497V11.4479C35.2124 11.5454 35.5968 11.6129 36 11.6129C36.4032 11.6129 36.7876 11.5454 37.1613 11.4479V13.6497L44.4471 15.7307C44.9444 15.8736 45.2903 16.3323 45.2903 16.8489V31.3548H47.6129V16.8489C47.6129 15.302 46.5735 13.9241 45.0862 13.4989L39.4839 11.8987V10.0082C40.1983 9.19052 40.6452 8.1347 40.6452 6.96774V4.64516C40.6452 2.08329 38.5619 0 36 0C33.4381 0 31.3548 2.08329 31.3548 4.64516V6.96774C31.3548 8.1347 31.8017 9.19052 32.5161 10.0082V11.8987L26.9127 13.4989ZM33.6774 4.64516C33.6774 3.36423 34.7191 2.32258 36 2.32258C37.2809 2.32258 38.3226 3.36423 38.3226 4.64516V6.96774C38.3226 8.24868 37.2809 9.29032 36 9.29032C34.7191 9.29032 33.6774 8.24868 33.6774 6.96774V4.64516Z" fill="#586C7F"/>
<path d="M34.8387 27.871H37.1613V54.5806H34.8387V27.871Z" fill="#586C7F"/>
<path d="M2.32258 28.4618C2.32258 27.9464 2.66847 27.4865 3.16463 27.3448L10.4516 25.2626V23.0608C10.8253 23.1583 11.2097 23.2258 11.6129 23.2258C12.0161 23.2258 12.4005 23.1583 12.7742 23.0608V25.2626L20.06 27.3436C20.5573 27.4865 20.9032 27.9453 20.9032 28.4618V42.9678H23.2258V28.4618C23.2258 26.915 22.1864 25.5371 20.6991 25.1118L15.0968 23.5116V21.6211C15.8112 20.8046 16.2581 19.7488 16.2581 18.5807V16.2581C16.2581 13.6962 14.1748 11.6129 11.6129 11.6129C9.05103 11.6129 6.96774 13.6962 6.96774 16.2581V18.5807C6.96774 19.7476 7.41457 20.8034 8.12903 21.6211V23.5116L2.52558 25.1118C1.03938 25.5371 0 26.915 0 28.4618V44.129H2.32258V28.4618ZM9.29032 16.2581C9.29032 14.9771 10.332 13.9355 11.6129 13.9355C12.8938 13.9355 13.9355 14.9771 13.9355 16.2581V18.5807C13.9355 19.8616 12.8938 20.9032 11.6129 20.9032C10.332 20.9032 9.29032 19.8616 9.29032 18.5807V16.2581Z" fill="#586C7F"/>
<path d="M10.4517 39.4839H12.7742V66.1936H10.4517V39.4839Z" fill="#586C7F"/>
<path d="M69.4733 25.1118L63.8709 23.5116V21.6211C64.5854 20.8046 65.0322 19.7488 65.0322 18.5807V16.2581C65.0322 13.6962 62.9489 11.6129 60.3871 11.6129C57.8252 11.6129 55.7419 13.6962 55.7419 16.2581V18.5807C55.7419 19.7476 56.1887 20.8034 56.9032 21.6211V23.5116L51.2997 25.1118C49.8135 25.5371 48.7742 26.915 48.7742 28.4618V44.129H51.0968V28.4618C51.0968 27.9464 51.4426 27.4865 51.9388 27.3448L59.2258 25.2626V23.0608C59.5995 23.1583 59.9839 23.2258 60.3871 23.2258C60.7902 23.2258 61.1747 23.1583 61.5484 23.0608V25.2626L68.8342 27.3436C69.3315 27.4865 69.6774 27.9453 69.6774 28.4618V42.9678H72V28.4618C72 26.915 70.9606 25.5371 69.4733 25.1118ZM58.0645 18.5807V16.2581C58.0645 14.9771 59.1061 13.9355 60.3871 13.9355C61.668 13.9355 62.7097 14.9771 62.7097 16.2581V18.5807C62.7097 19.8616 61.668 20.9032 60.3871 20.9032C59.1061 20.9032 58.0645 19.8616 58.0645 18.5807Z" fill="#586C7F"/>
<path d="M59.2258 39.4839H61.5484V66.1936H59.2258V39.4839Z" fill="#586C7F"/>
<path d="M16.2581 29.0323V67.3549H23.2258V62.7097H34.8387V60.3871H25.5484V55.742H31.3548V17.4194H29.0322V53.4194H23.2258V60.3871H20.9032V65.0323H18.5806V29.0323H16.2581Z" fill="#586C7F"/>
<path d="M67.3548 29.0323H65.0323V67.3549H69.6774V69.6775H2.32258V67.3549H6.96774V29.0323H4.64516V65.0323H0V72H72V65.0323H67.3548V29.0323Z" fill="#586C7F"/>
<path d="M42.9677 53.4194V17.4194H40.6451V55.742H46.4516V60.3871H37.1613V62.7097H48.7742V67.3549H55.7419V29.0323H53.4193V65.0323H51.0967V60.3871H48.7742V53.4194H42.9677Z" fill="#586C7F"/>
<path d="M45.2903 0H47.6129V2.32258H45.2903V0Z" fill="#586C7F"/>
<path d="M42.9678 2.32257H45.2904V4.64515H42.9678V2.32257Z" fill="#586C7F"/>
<path d="M45.2903 4.64514H47.6129V6.96772H45.2903V4.64514Z" fill="#586C7F"/>
<path d="M47.6129 2.32257H49.9355V4.64515H47.6129V2.32257Z" fill="#586C7F"/>
<path d="M22.0646 5.80646H24.3872V8.12904H22.0646V5.80646Z" fill="#586C7F"/>
<path d="M19.7419 8.12903H22.0645V10.4516H19.7419V8.12903Z" fill="#586C7F"/>
<path d="M22.0646 10.4516H24.3872V12.7742H22.0646V10.4516Z" fill="#586C7F"/>
<path d="M24.3871 8.12903H26.7097V10.4516H24.3871V8.12903Z" fill="#586C7F"/>
</g>
<defs>
<clipPath id="clip0">
<rect width="72" height="72" fill="white"/>
</clipPath>
</defs>
</svg>
