<svg id="instagram2" xmlns="http://www.w3.org/2000/svg" viewBox="0 0 512 512">
  <defs>
    <style>
      .cls-1 {
        fill: #9e9e9d;
      }
    </style>
  </defs>
  <path id="Path_8" data-name="Path 8" class="cls-1" d="M114.759,512h61.1L79.448,450.207.2,403.9A114.9,114.9,0,0,0,114.759,512Z"/>
  <path id="Path_9" data-name="Path 9" class="cls-1" d="M335.448,476.69l-69.006-17.655H114.759a61.864,61.864,0,0,1-61.793-61.793V363.366l-26.483-28.42L0,339.628v57.613c0,2.236.072,4.454.2,6.657L175.862,512H384.629Z"/>
  <path id="Path_10" data-name="Path 10" class="cls-1" d="M441.655,440.14a61.6,61.6,0,0,1-44.414,18.894h-130.8L384.629,512h12.612a114.784,114.784,0,0,0,97.64-54.527l-27.022-16.094Z"/>
  <path id="Path_11" data-name="Path 11" class="cls-1" d="M459.034,326.014v71.228a61.574,61.574,0,0,1-17.379,42.9l53.227,17.333A114.074,114.074,0,0,0,512,397.241v-62.8l-27.4-15.391Z"/>
  <path id="Path_12" data-name="Path 12" class="cls-1" d="M512,149.19l-28.2-6.716L459.034,157.3V326.014L512,334.436Z"/>
  <path id="Path_13" data-name="Path 13" class="cls-1" d="M512,114.759A114.932,114.932,0,0,0,413.864,1.209L344.43,30.1,309.247,52.966h87.994a61.864,61.864,0,0,1,61.793,61.793V157.3L512,149.19Z"/>
  <path id="Path_14" data-name="Path 14" class="cls-1" d="M317.732,0,252.05,24.636l-51.8,28.33h109L413.864,1.208A115.22,115.22,0,0,0,397.241,0Z"/>
  <path id="Path_15" data-name="Path 15" class="cls-1" d="M256,406.069a149.346,149.346,0,0,0,52.226-9.38l-86.02-39.047-91.178-18.657A150.043,150.043,0,0,0,256,406.069Z"/>
  <path id="Path_16" data-name="Path 16" class="cls-1" d="M329.153,305.358a88.235,88.235,0,0,1-158.02-25.128l-23.682-14.8L106.6,269.967a149.134,149.134,0,0,0,24.425,69.017l177.2,57.705a150.888,150.888,0,0,0,85.458-81.068l-31.753-16.085Z"/>
  <g id="Group_4" data-name="Group 4">
    <path id="Path_17" data-name="Path 17" class="cls-1" d="M167.724,256a87.864,87.864,0,0,1,21.247-57.346l-37.658-5.268-38.25,16.892A149.478,149.478,0,0,0,105.931,256c0,4.712.244,9.365.671,13.966l64.53,10.262A87.974,87.974,0,0,1,167.724,256Z"/>
    <path id="Path_18" data-name="Path 18" class="cls-1" d="M406.069,256a149.242,149.242,0,0,0-27.428-86.39l-37.4-5.308-38.418,16.917a88.156,88.156,0,0,1,26.327,124.139l64.531,10.262A149.162,149.162,0,0,0,406.069,256Z"/>
  </g>
  <g id="Group_5" data-name="Group 5">
    <path id="Path_19" data-name="Path 19" class="cls-1" d="M256,167.724a87.727,87.727,0,0,1,46.826,13.495l75.815-11.609A150,150,0,0,0,256,105.931c-66.81,0-123.554,43.889-142.937,104.345l75.908-11.624A88.089,88.089,0,0,1,256,167.724Z"/>
    <path id="Path_20" data-name="Path 20" class="cls-1" d="M397.241,150.069a35.31,35.31,0,1,0-35.31-35.31A35.35,35.35,0,0,0,397.241,150.069Z"/>
  </g>
  <path id="Path_21" data-name="Path 21" class="cls-1" d="M52.966,313.564l-25.5-12.717L0,296.316v43.313l52.966,23.737Z"/>
  <path id="Path_22" data-name="Path 22" class="cls-1" d="M0,253.014v43.3l52.966,17.248V261.437l-27.52-9.894Z"/>
  <path id="Path_23" data-name="Path 23" class="cls-1" d="M52.966,219.479l-27.217-.246L0,227.59v25.424l52.966,8.423Z"/>
  <path id="Path_24" data-name="Path 24" class="cls-1" d="M52.966,179.757,24.911,182.6,0,205.962V227.59l52.966-8.111Z"/>
  <path id="Path_25" data-name="Path 25" class="cls-1" d="M0,205.962l52.966-26.205v-60.4L21.9,122.333,0,143.241Z"/>
  <path id="Path_26" data-name="Path 26" class="cls-1" d="M205.059,0,84.206,46.481,1.387,96.928A115.221,115.221,0,0,0,0,114.759v28.482l52.966-23.878v-4.605a61.864,61.864,0,0,1,61.793-61.793h85.487L317.732,0Z"/>
  <path id="Path_27" data-name="Path 27" class="cls-1" d="M114.759,0A114.939,114.939,0,0,0,1.387,96.928L205.059,0Z"/>
</svg>
