<svg xmlns="http://www.w3.org/2000/svg" viewBox="0 0 438.536 419.121">
  <defs>
    <style>
      .cls-1 {
        fill: #0760aa;
      }
    </style>
  </defs>
  <g id="linkedin-letters" transform="translate(0 -9.708)">
    <g id="Group_11" data-name="Group 11">
      <rect id="Rectangle_1" data-name="Rectangle 1" class="cls-1" width="94.216" height="282.932" transform="translate(5.424 145.895)"/>
      <path id="Path_11" data-name="Path 11" class="cls-1" d="M408.842,171.739q-29.686-32.406-78.512-32.408a113.154,113.154,0,0,0-32.7,4.427A74.181,74.181,0,0,0,272.8,156.177a106.368,106.368,0,0,0-27.265,29.948V145.893H151.6l.288,13.706q.289,13.709.288,84.508T151.6,428.829h93.931V270.942q0-14.557,3.139-23.127A60.643,60.643,0,0,1,266.8,223.408q12.139-9.858,30.125-9.855,24.546,0,36.117,16.987t11.561,46.966V428.82h93.931V266.664Q438.525,204.132,408.842,171.739Z"/>
      <path id="Path_12" data-name="Path 12" class="cls-1" d="M53.1,9.708q-23.694,0-38.4,13.848T0,58.529Q0,79.365,14.275,93.358t37.685,13.99h.571q23.985,0,38.688-13.99t14.417-34.829Q105.351,37.4,91.075,23.556T53.1,9.708Z"/>
    </g>
  </g>
</svg>
