<svg xmlns="http://www.w3.org/2000/svg" viewBox="0 0 469.333 512">
  <defs>
    <style>
      .cls-1 {
        fill: #fff;
      }
    </style>
  </defs>
  <g id="login" transform="translate(-21.333)">
    <g id="Group_2" data-name="Group 2">
      <g id="Group_1" data-name="Group 1">
        <path id="Path_3" data-name="Path 3" class="cls-1" d="M173.781,280.469a10.665,10.665,0,0,0,15.083,15.083l64-64a10.643,10.643,0,0,0,2.3-3.477,10.5,10.5,0,0,0,.469-2.3A9.994,9.994,0,0,0,256,224a10.126,10.126,0,0,0-.469-2.283,9.76,9.76,0,0,0-.363-1.749A11.191,11.191,0,0,0,252.8,216.4l-63.936-63.936a10.665,10.665,0,1,0-15.083,15.083l45.76,45.781H32a10.667,10.667,0,0,0,0,21.334H219.584Z"/>
        <path id="Path_4" data-name="Path 4" class="cls-1" d="M444.608,0a45.3,45.3,0,0,0-4.843.491A10.458,10.458,0,0,0,437.333,0h-256A53.407,53.407,0,0,0,128,53.333V160a10.667,10.667,0,0,0,21.334,0V53.333a32.039,32.039,0,0,1,32-32H385.366L305.259,55.658a46.033,46.033,0,0,0-27.925,42.347V426.666h-96c-15.339,0-28.373-10.667-31.552-15.083l-.448-123.627a10.675,10.675,0,0,0-10.667-10.624h-.043A10.67,10.67,0,0,0,128,288.041l.491,124.309c-.427,4.672,1.771,9.557,6.677,14.933C143.893,436.84,161.216,448,181.333,448h96v17.941a46.074,46.074,0,0,0,64.192,42.347l121.216-51.947a46.033,46.033,0,0,0,27.925-42.347V46.059A46.123,46.123,0,0,0,444.608,0Zm24.725,413.995a24.677,24.677,0,0,1-15,22.72L333.12,488.661a24.146,24.146,0,0,1-9.728,2,24.755,24.755,0,0,1-24.725-24.725V98a24.677,24.677,0,0,1,15-22.72L434.88,23.339a24.144,24.144,0,0,1,9.728-2.005,24.755,24.755,0,0,1,24.725,24.725Z"/>
        <path id="Path_5" data-name="Path 5" class="cls-1" d="M330.667,234.667A10.671,10.671,0,0,0,320,245.334V288a10.667,10.667,0,0,0,21.334,0V245.333a10.671,10.671,0,0,0-10.667-10.666Z"/>
      </g>
    </g>
  </g>
</svg>
