<svg xmlns="http://www.w3.org/2000/svg" viewBox="0 0 72.418 78.749">
  <defs>
    <style>
      .cls-1, .cls-2 {
        fill: #145f9f;
      }

      .cls-1 {
        fill-rule: evenodd;
      }
    </style>
  </defs>
  <g id="Group_9" data-name="Group 9" transform="translate(-74.214 -221.99)">
    <g id="Group_1" data-name="Group 1">
      <path id="Path_8" data-name="Path 8" class="cls-1" d="M85.829,261.364a28.03,28.03,0,0,1,47.779-19.9,1.045,1.045,0,0,1,.078.073,3.04,3.04,0,1,1-4.3,4.3c-.047-.051-.093-.1-.14-.15a21.96,21.96,0,1,0,5.325,23.005,8.291,8.291,0,0,1-3.891-4.31l-20.4.036a4.709,4.709,0,1,1,7.192-6.079h13.2a8.262,8.262,0,1,1,10.079,10.928,28.034,28.034,0,0,1-54.93-7.907Zm12.392.207a15.894,15.894,0,0,1,27.124-11.249l.01.006a3.038,3.038,0,0,1-4.294,4.3,1.706,1.706,0,0,1-.14-.144,9.824,9.824,0,1,0,.015,14.156c.047-.051.094-.1.14-.15a3.041,3.041,0,1,1,4.3,4.3.039.039,0,0,0-.021.021,15.9,15.9,0,0,1-27.134-11.239Zm43.645-.207a3.495,3.495,0,1,0-3.5,3.493A3.494,3.494,0,0,0,141.866,261.364Z"/>
    </g>
    <path id="Path_9" data-name="Path 9" class="cls-2" d="M136.869,285.375c-.043.049-.086.1-.129.159a9.666,9.666,0,0,1-1.646,1.447,31.67,31.67,0,0,1-21.5,8.127,33.744,33.744,0,1,1,23.2-58.223c0,.018-.005.038-.01.056.115.108.23.216.34.328.045.053.091.1.137.153a3.04,3.04,0,1,0,4.385-4.213,1.057,1.057,0,0,0-.077-.074c-.431-.446-.884-.871-1.345-1.286l0-.007c-.168-.152-.345-.295-.516-.444-.093-.08-.182-.164-.276-.243v0a39.532,39.532,0,1,0-25.844,69.58c10.22,0,18.509-2.774,25.507-9.159h0a15.993,15.993,0,0,0,2.346-2.194.045.045,0,0,1,.019-.022,3.04,3.04,0,1,0-4.59-3.988Z"/>
  </g>
</svg>
