<svg xmlns="http://www.w3.org/2000/svg" viewBox="0 0 31.012 22.047">
  <defs>
    <style>
      .cls-1 {
        fill: #b2b2b2;
      }
    </style>
  </defs>
  <g id="mail" transform="translate(0 -4.482)">
    <path id="Path_1" data-name="Path 1" class="cls-1" d="M28.512,26.529H2.5a2.5,2.5,0,0,1-2.5-2.5V6.982a2.5,2.5,0,0,1,2.5-2.5H28.512a2.5,2.5,0,0,1,2.5,2.5V24.029A2.5,2.5,0,0,1,28.512,26.529ZM2.5,5.482A1.5,1.5,0,0,0,1,6.982V24.029a1.5,1.5,0,0,0,1.5,1.5H28.512a1.5,1.5,0,0,0,1.5-1.5V6.982a1.5,1.5,0,0,0-1.5-1.5Z"/>
    <path id="Path_2" data-name="Path 2" class="cls-1" d="M15.506,18.018a2.8,2.8,0,0,1-1.836-.662L.891,6.219a.5.5,0,0,1,.658-.754L14.327,16.6a1.874,1.874,0,0,0,2.358,0L29.46,5.466a.5.5,0,0,1,.658.754L17.342,17.355A2.792,2.792,0,0,1,15.506,18.018Z"/>
  </g>
</svg>
