<svg id="newspaper" xmlns="http://www.w3.org/2000/svg" viewBox="0 0 432 496">
  <defs>
    <style>
      .cls-1 {
        fill: #586c7f;
      }
    </style>
  </defs>
  <path id="Path_1" data-name="Path 1" class="cls-1" d="M400,160V80H368V0H0V456a40.047,40.047,0,0,0,40,40H392a40.047,40.047,0,0,0,40-40V160ZM40,480a24.031,24.031,0,0,1-24-24V16H352V456a39.79,39.79,0,0,0,8.016,24Zm376-24a24,24,0,0,1-48,0V96h16V432h16V176h16Zm0,0"/>
  <path id="Path_2" data-name="Path 2" class="cls-1" d="M384,448h16v16H384Zm0,0"/>
  <path id="Path_3" data-name="Path 3" class="cls-1" d="M274.984,369.672,248,361.969v-2.137A40.04,40.04,0,0,0,264,328V313.375c0-21.168-15.855-39.254-36.105-41.184A39.986,39.986,0,0,0,184,312v16a40.04,40.04,0,0,0,16,31.832v2.137l-26.992,7.7A40.186,40.186,0,0,0,144,408.145V432H304V408.145a40.184,40.184,0,0,0-29.016-38.473ZM288,416H160v-7.855a24.115,24.115,0,0,1,17.406-23.082L216,374.031v-23.07l-3.977-2.312A23.745,23.745,0,0,1,200,328V312a24,24,0,0,1,26.375-23.895C238.5,289.266,248,300.367,248,313.375V328a23.745,23.745,0,0,1-12.023,20.648L232,350.961v23.07l38.586,11.031A24.113,24.113,0,0,1,288,408.145Zm0,0"/>
  <path id="Path_4" data-name="Path 4" class="cls-1" d="M112,464H336V240H112Zm16-208H320V448H128Zm0,0"/>
  <path id="Path_5" data-name="Path 5" class="cls-1" d="M128,224a96,96,0,1,0-96-96A96.1,96.1,0,0,0,128,224Zm0-16a80.091,80.091,0,0,1-73.145-47.734,39.612,39.612,0,0,1,25.551,11.445l1.656,1.656A36.278,36.278,0,0,0,144,147.719V140a28.029,28.029,0,0,0-28-28,12.013,12.013,0,0,1-12-12V88A56.144,56.144,0,0,0,93.7,55.84a79.178,79.178,0,0,1,26.824-7.457,44.826,44.826,0,0,0-.52,5.441,45.608,45.608,0,0,0,17.2,35.793l13.633,10.895A24.307,24.307,0,0,1,160,119.574,40.474,40.474,0,0,0,200.426,160c.285,0,.59-.055.879-.062A80.091,80.091,0,0,1,128,208Zm80-80a80.1,80.1,0,0,1-1.527,15.465,39.018,39.018,0,0,1-6.047.535A24.448,24.448,0,0,1,176,119.574a40.212,40.212,0,0,0-15.168-31.559L147.2,77.113A29.662,29.662,0,0,1,136,53.824a27.736,27.736,0,0,1,.527-5.352A80.1,80.1,0,0,1,208,128ZM80.062,64.105A40.22,40.22,0,0,1,88,88v12a28.029,28.029,0,0,0,28,28,12.013,12.013,0,0,1,12,12v7.719a20.285,20.285,0,0,1-34.625,14.344l-1.656-1.656A55.645,55.645,0,0,0,52.12,144a18.126,18.126,0,0,1-2.547-.238A79.7,79.7,0,0,1,80.062,64.106Zm0,0"/>
  <path id="Path_6" data-name="Path 6" class="cls-1" d="M240,32h96V48H240Zm0,0"/>
  <path id="Path_7" data-name="Path 7" class="cls-1" d="M240,64h16V80H240Zm0,0"/>
  <path id="Path_8" data-name="Path 8" class="cls-1" d="M272,64h64V80H272Zm0,0"/>
  <path id="Path_9" data-name="Path 9" class="cls-1" d="M240,96h96v16H240Zm0,0"/>
  <path id="Path_10" data-name="Path 10" class="cls-1" d="M240,128h96v16H240Zm0,0"/>
  <path id="Path_11" data-name="Path 11" class="cls-1" d="M240,160h64v16H240Zm0,0"/>
  <path id="Path_12" data-name="Path 12" class="cls-1" d="M320,160h16v16H320Zm0,0"/>
  <path id="Path_13" data-name="Path 13" class="cls-1" d="M32,440H96v16H32Zm0,0"/>
  <path id="Path_14" data-name="Path 14" class="cls-1" d="M32,408H96v16H32Zm0,0"/>
  <path id="Path_15" data-name="Path 15" class="cls-1" d="M32,376H96v16H32Zm0,0"/>
  <path id="Path_16" data-name="Path 16" class="cls-1" d="M32,344H96v16H32Zm0,0"/>
  <path id="Path_17" data-name="Path 17" class="cls-1" d="M32,312H96v16H32Zm0,0"/>
</svg>
