<svg width="72" height="72" viewBox="0 0 72 72" fill="none" xmlns="http://www.w3.org/2000/svg">
<path d="M62.7097 65.0322H65.0323V67.3548H62.7097V65.0322Z" fill="#586C7F"/>
<path d="M58.0645 65.0322H60.3871V67.3548H58.0645V65.0322Z" fill="#586C7F"/>
<path d="M53.4194 65.0322H55.742V67.3548H53.4194V65.0322Z" fill="#586C7F"/>
<path d="M6.96774 65.0322H16.2581V67.3548H6.96774V65.0322Z" fill="#586C7F"/>
<path d="M69.6774 60.3871V22.0645C69.6774 18.863 67.0725 16.2581 63.871 16.2581H51.0968V3.48387C51.0968 1.56332 49.5335 0 47.6129 0H24.3871C22.4665 0 20.9032 1.56332 20.9032 3.48387V16.2581H8.12903C4.92755 16.2581 2.32258 18.863 2.32258 22.0645V60.3871H0V66.1936C0 69.395 2.60496 72 5.80645 72H66.1936C69.395 72 72 69.395 72 66.1936V60.3871H69.6774ZM20.9032 32.5161H16.2581V34.8387H55.7419V32.5161H51.0968V23.2258H62.7097V60.3871H47.1321L46.7918 60.7273C45.5132 62.006 43.8143 62.7097 42.006 62.7097H29.9939C28.1857 62.7097 26.4857 62.006 25.2082 60.7273L24.8679 60.3871H9.29032V23.2258H20.9032V32.5161ZM27.871 32.5161V2.32258H32.5161V32.5161H27.871ZM48.7742 3.48387V32.5161H41.8064V23.2258H39.4839V32.5161H34.8387V2.32258H47.6129C48.2537 2.32258 48.7742 2.84425 48.7742 3.48387ZM4.64516 22.0645C4.64516 20.144 6.20848 18.5806 8.12903 18.5806H23.2258V3.48387C23.2258 2.84425 23.7463 2.32258 24.3871 2.32258H25.5484V32.5161H23.2258V20.9032H9.29032C8.00939 20.9032 6.96774 21.9449 6.96774 23.2258V60.3871H4.64516V22.0645ZM69.6774 66.1936C69.6774 68.1141 68.1141 69.6774 66.1936 69.6774H5.80645C3.8859 69.6774 2.32258 68.1141 2.32258 66.1936V62.7097H23.925C25.5949 64.2112 27.7303 65.0323 29.9951 65.0323H42.0072C44.2708 65.0323 46.4074 64.2112 48.0773 62.7097H65.0323V23.2258C65.0323 21.9449 63.9906 20.9032 62.7097 20.9032H51.0968V18.5806H63.871C65.7915 18.5806 67.3548 20.144 67.3548 22.0645V62.7097H69.6774V66.1936Z" fill="#586C7F"/>
<path d="M37.1613 13.9355C37.1613 16.4973 39.2446 18.5806 41.8064 18.5806C44.3683 18.5806 46.4516 16.4973 46.4516 13.9355C46.4516 13.0866 46.2066 12.3013 45.8069 11.6163C46.2231 10.9092 46.4516 10.1114 46.4516 9.2903C46.4516 6.72843 44.3683 4.64514 41.8064 4.64514C39.2446 4.64514 37.1613 6.72843 37.1613 9.2903C37.1613 10.1114 37.3898 10.9092 37.806 11.6163C37.4062 12.3013 37.1613 13.0866 37.1613 13.9355ZM41.8064 16.258C40.5255 16.258 39.4839 15.2164 39.4839 13.9355C39.4839 12.6545 40.5255 11.6129 41.8064 11.6129C43.0874 11.6129 44.129 12.6545 44.129 13.9355C44.129 15.2164 43.0874 16.258 41.8064 16.258ZM41.8064 6.96772C43.0874 6.96772 44.129 8.00937 44.129 9.2903C44.129 9.51088 44.0916 9.70594 44.0406 9.88853C43.3754 9.51882 42.6207 9.2903 41.8064 9.2903C40.9922 9.2903 40.2375 9.51882 39.5723 9.88853C39.5213 9.70594 39.4839 9.51088 39.4839 9.2903C39.4839 8.00937 40.5255 6.96772 41.8064 6.96772Z" fill="#586C7F"/>
<path d="M44.129 27.871H46.4516V30.1936H44.129V27.871Z" fill="#586C7F"/>
<path d="M44.129 23.2258H46.4516V25.5484H44.129V23.2258Z" fill="#586C7F"/>
<path d="M32.5161 37.1613H11.6129V58.0645H32.5161V37.1613ZM30.1936 55.742H13.9355V39.4839H30.1936V55.742Z" fill="#586C7F"/>
<path d="M16.2581 41.8065H18.5806V44.129H16.2581V41.8065Z" fill="#586C7F"/>
<path d="M20.9032 41.8065H23.2258V44.129H20.9032V41.8065Z" fill="#586C7F"/>
<path d="M25.5484 41.8065H27.871V44.129H25.5484V41.8065Z" fill="#586C7F"/>
<path d="M25.5484 46.4516H27.871V48.7742H25.5484V46.4516Z" fill="#586C7F"/>
<path d="M16.2581 46.4516H18.5806V48.7742H16.2581V46.4516Z" fill="#586C7F"/>
<path d="M20.9032 46.4516H23.2258V48.7742H20.9032V46.4516Z" fill="#586C7F"/>
<path d="M25.5484 51.0968H27.871V53.4194H25.5484V51.0968Z" fill="#586C7F"/>
<path d="M16.2581 51.0968H18.5806V53.4194H16.2581V51.0968Z" fill="#586C7F"/>
<path d="M20.9032 51.0968H23.2258V53.4194H20.9032V51.0968Z" fill="#586C7F"/>
<path d="M60.3871 37.1613H34.8387V58.0645H60.3871V37.1613ZM58.0645 55.742H37.1613V39.4839H58.0645V55.742Z" fill="#586C7F"/>
<path d="M39.4839 41.8065H55.742V44.129H39.4839V41.8065Z" fill="#586C7F"/>
<path d="M39.4839 46.4516H55.742V48.7742H39.4839V46.4516Z" fill="#586C7F"/>
<path d="M39.4839 51.0968H51.0968V53.4194H39.4839V51.0968Z" fill="#586C7F"/>
</svg>
