<svg xmlns="http://www.w3.org/2000/svg" viewBox="0 0 496 496">
  <defs>
    <style>
      .cls-1 {
        fill: #586c7f;
      }
    </style>
  </defs>
  <g id="partners" transform="translate(0)">
    <path id="Path_20" data-name="Path 20" class="cls-1" d="M496,256V191.809A39.754,39.754,0,0,0,467.5,153.5L416,138.047V125.895a55.939,55.939,0,0,0,24-45.887V56a56,56,0,0,0-112,0V80a55.917,55.917,0,0,0,24,45.887v12.152l-45.383,13.617a92.452,92.452,0,0,0-121.93-1.4L144,138.047V125.895a55.939,55.939,0,0,0,24-45.887V56A56,56,0,0,0,56,56V80a55.917,55.917,0,0,0,24,45.887v12.152L28.5,153.488A39.77,39.77,0,0,0,0,191.809V256H16V191.809a23.84,23.84,0,0,1,17.106-22.984l51.512-15.457C89.273,159.414,98.281,168,112,168s22.727-8.586,27.383-14.633l32.809,9.84a92.339,92.339,0,0,0-19.457,46.48A55.924,55.924,0,0,0,56,248v24a55.917,55.917,0,0,0,24,45.887v12.152L28.5,345.488A39.77,39.77,0,0,0,0,383.809V456H96a8.015,8.015,0,0,1,8,8v32H392V464a8.015,8.015,0,0,1,8-8h96V383.809A39.754,39.754,0,0,0,467.5,345.5L416,330.047V317.895a55.939,55.939,0,0,0,24-45.887v-24a55.951,55.951,0,0,0-96-39.121V201.3a43.019,43.019,0,0,0-21.984-37.543l34.6-10.387C361.273,159.414,370.281,168,384,168s22.727-8.586,27.383-14.633l51.52,15.457A23.842,23.842,0,0,1,480,191.809V256ZM112,16a40.047,40.047,0,0,1,40,40H115.313a19.446,19.446,0,0,1-13.656-5.656L96,44.688l-5.656,5.656A19.446,19.446,0,0,1,76.687,56H72a40.047,40.047,0,0,1,40-40ZM72,80V72h4.688A35.035,35.035,0,0,0,96,66.266,35.035,35.035,0,0,0,115.313,72H152v8a40,40,0,0,1-80,0Zm40,72c-8.5,0-14.016-7.145-16-10.2v-8.152a55.519,55.519,0,0,0,32-.008v8.152c-1.984,3.07-7.5,10.207-16,10.207ZM331.9,292.414a56.243,56.243,0,0,0,20.1,25.48v12.152L300.511,345.5a39.282,39.282,0,0,0-4.953,1.887L288,345.641V329.879a64.335,64.335,0,0,0,19.426-26.238A39.84,39.84,0,0,0,331.9,292.414ZM248,344a63.561,63.561,0,0,0,24-4.711V348l-24,18-24-18v-8.711A63.56,63.56,0,0,0,248,344Zm-33.824,16.633,19.5,14.633L213.617,387.3l-5.074-25.367ZM239.16,424h17.68l6.223,56H232.937Zm19.07-16H237.761l-4.594-13.777L248,385.328l14.824,8.895Zm4.09-32.734,19.5-14.633,5.633,1.3L282.383,387.3Zm59.441-95.121a23.992,23.992,0,0,1-10.105,6.465A64.876,64.876,0,0,0,312,280V241.719c8.609,3.266,15.016,10.84,15.879,19.891a23.864,23.864,0,0,1-6.117,18.535ZM296,280a48,48,0,0,1-96,0V240h27.16a102.884,102.884,0,0,0,49.566-12.664L283.054,240H296Zm-111.656,6.609a23.612,23.612,0,0,1-16.223-24.992c.863-9.051,7.27-16.633,15.879-19.891V280a64.876,64.876,0,0,0,.344,6.609Zm4.23,17.031A64.2,64.2,0,0,0,208,329.879v15.762l-7.559,1.742A41.4,41.4,0,0,0,195.5,345.5L144,330.047V317.895a56.3,56.3,0,0,0,20.1-25.48,39.84,39.84,0,0,0,24.477,11.227ZM112,208a40.047,40.047,0,0,1,40,40h-4.687a19.446,19.446,0,0,1-13.656-5.656L128,236.687l-5.656,5.656A19.446,19.446,0,0,1,108.687,248H72a40.047,40.047,0,0,1,40-40ZM72,272v-8h36.688A35.035,35.035,0,0,0,128,258.266,35.035,35.035,0,0,0,147.313,264H152v8a40,40,0,1,1-80,0Zm40,56a55.662,55.662,0,0,0,16-2.359v8.152c-1.984,3.07-7.5,10.207-16,10.207s-14.016-7.145-16-10.2v-8.152A55.931,55.931,0,0,0,112,328ZM96,440H64V384H48v56H16V383.809a23.84,23.84,0,0,1,17.105-22.984l51.512-15.457C89.273,351.414,98.281,360,112,360s22.727-8.586,27.383-14.633l30.336,9.105-22.312,5.145A55.753,55.753,0,0,0,104,414.184V424h16v-9.816a39.828,39.828,0,0,1,31.008-38.977l41.938-9.68,9.43,47.168,16.738-10.039,4.734,14.207L216.84,480H176V416H160v64H120V464a24.031,24.031,0,0,0-24-24Zm366.9-79.176A23.84,23.84,0,0,1,480,383.809V440H448V384H432v56H400a24.031,24.031,0,0,0-24,24v16H336V416H320v64h-40.84l-7.016-63.137,4.734-14.207L293.618,412.7l9.43-47.168,41.945,9.68A39.828,39.828,0,0,1,376,414.184V424h16v-9.816a55.753,55.753,0,0,0-43.406-54.566l-22.312-5.145,30.336-9.105C361.274,351.414,370.282,360,384,360s22.727-8.586,27.383-14.633ZM400,333.8c-1.984,3.063-7.5,10.2-16,10.2-8.52,0-14.039-7.168-16-10.2v-8.16a55.431,55.431,0,0,0,32,0ZM384,312a40.047,40.047,0,0,1-40-40v-8h4.688A35.035,35.035,0,0,0,368,258.266,35.035,35.035,0,0,0,387.313,264H424v8A40.047,40.047,0,0,1,384,312Zm0-104a40.047,40.047,0,0,1,40,40H387.313a19.446,19.446,0,0,1-13.656-5.656L368,236.687l-5.656,5.656A19.446,19.446,0,0,1,348.688,248H344a40.047,40.047,0,0,1,40-40Zm-56,24.68A42.028,42.028,0,0,0,302.626,224h-9.68l-9.84-19.68-7.539,5.023A86.976,86.976,0,0,1,227.161,224H193.375A42.028,42.028,0,0,0,168,232.68V220.848A76.854,76.854,0,0,1,299.192,166.5l8.488,8.488,1.793.6A27.066,27.066,0,0,1,328,201.3ZM384,16a40.047,40.047,0,0,1,40,40h-4.687a19.446,19.446,0,0,1-13.656-5.656L400,44.687l-5.656,5.656A19.446,19.446,0,0,1,380.688,56H344a40.047,40.047,0,0,1,40-40ZM344,80V72h36.688A35.035,35.035,0,0,0,400,66.265,35.035,35.035,0,0,0,419.313,72H424v8a40,40,0,1,1-80,0Zm40,72c-8.52,0-14.039-7.168-16-10.2v-8.16a55.431,55.431,0,0,0,32,0v8.152c-1.984,3.07-7.5,10.207-16,10.207Zm0,0"/>
    <path id="Path_21" data-name="Path 21" class="cls-1" d="M184,0h16V16H184Zm0,0"/>
    <path id="Path_22" data-name="Path 22" class="cls-1" d="M184,32h16v88H184Zm0,0"/>
    <path id="Path_23" data-name="Path 23" class="cls-1" d="M296,0h16V16H296Zm0,0"/>
    <path id="Path_24" data-name="Path 24" class="cls-1" d="M296,32h16v88H296Zm0,0"/>
    <path id="Path_25" data-name="Path 25" class="cls-1" d="M216,32h16V88H216Zm0,0"/>
    <path id="Path_26" data-name="Path 26" class="cls-1" d="M216,104h16v16H216Zm0,0"/>
    <path id="Path_27" data-name="Path 27" class="cls-1" d="M264,32h16V88H264Zm0,0"/>
    <path id="Path_28" data-name="Path 28" class="cls-1" d="M264,104h16v16H264Zm0,0"/>
  </g>
</svg>
