<svg xmlns="http://www.w3.org/2000/svg" viewBox="0 0 469.331 469.275">
  <defs>
    <style>
      .cls-1 {
        fill: #fff;
      }
    </style>
  </defs>
  <g id="pencil" transform="translate(0 -0.028)">
    <path id="Path_6" data-name="Path 6" class="cls-1" d="M438.931,30.4a103.51,103.51,0,0,0-146.5,0L23.831,298.9a13.435,13.435,0,0,0-3.8,7.7L.131,454a13.394,13.394,0,0,0,3.8,11.3,13.66,13.66,0,0,0,9.5,4,10.868,10.868,0,0,0,1.8-.1l88.8-12a13.52,13.52,0,0,0-3.6-26.8l-71.2,9.6,13.9-102.8,108.2,108.2a13.66,13.66,0,0,0,9.5,4,13.242,13.242,0,0,0,9.5-4l268.6-268.5a103.449,103.449,0,0,0,0-146.5Zm-141.3,33,45.1,45.1L97.631,353.6l-45.1-45.1Zm-136.7,353.4-44.1-44.1,245.1-245.1,44.1,44.1Zm263.9-264.4L316.931,44.5a76.65,76.65,0,0,1,107.9,107.9Z"/>
  </g>
</svg>
