<svg xmlns="http://www.w3.org/2000/svg" viewBox="0 0 45.066 46.002">
  <defs>
    <style>
      .cls-1 {
        fill: #ffce44;
      }
    </style>
  </defs>
  <g id="planet2" transform="translate(-0.468)">
    <g id="Group_3" data-name="Group 3">
      <path id="Path_5" data-name="Path 5" class="cls-1" d="M40.5,16.351l.4.287h.373V15.92l1.176-.114,1.117.832H45.4l.129-.118q-.276-.929-.623-1.823l-1.2.02-.6-.66L43,13l-.616.336-.33,1.3-.889-.946-.036-.894-.858-.739-.316-.315h-.995l.313.887,1.2.668.208.221-.26.13.012.7-.584.244-.5-.109-.312-.441.811.043.219-.3-1.795-1.211-.138-.516-.729.66-.739-.152L35.537,14.03l-.222.573-.72.065-1.065.007-.637-.3L32.7,13.112l.229-.6,1.084-.237,1.182.237.145-.654-.5-.119.171-1.019,1.19-.186.832-1.175.859-.144.775.115h.286l-.158-1.1-.942.38-.332-.825L36.977,7.7l-.1-.565.446-.486,1.061-.416.273-.488a22.934,22.934,0,0,0-28.7-1.342l1.16-.009.517.286.974.21.076.383,1.549.057-.21-.5L12.645,4.8l.324-.3-.113-.364H11.612l1.357-1.013h1.3l.611.842,1.014.057.611-.593.459.229-.842.822s-1.165.021-1.108.021a3.853,3.853,0,0,1,.1.8l1.413-.039.153-.381.974-.058.115-.573-.573-.1.191-.516.439-.133,1.529.076-.843.765.136.592.879.134-.057-1.07.841-.44L21.8,3.382l2.159.956V5.16l.688.172-.345.65h-.975l-.289.745L20.811,6.2l1.751-.933L21.895,4.7l-1.51.191-.132.137,0,0-.023.032-.435.452-.719.059.057.358.251.1-.01.118-.585.083-.043.339-.559.029-.1-.674-1,.3-2.05,1.2.23.845.573.374,1.146.158v1.3l.53-.085L18,9.01l1.219-.386V7.061l.678-.512,1.639.387-.115,1.033h.44l1.2-.592.058,1.356L24,9.268l-.037.8-.84.286.057.266,1.013.461-.021.554-.293.025a.08.08,0,0,0,0-.015l-1.278-.394-.054-.41h0l.374-.257v-.374l-.4-.1-.1.345-.7.109-.07-.023v.035l-.244.037-.2-.4-.23-.1h-.5l-.228.188v.416l.429.143.424.06-.095.042-.387.429-.17-.214-.374-.1-1.019.958.133.109-1.5.833L16.255,14.45l-.1.655-1.418.932-.7.707.078,1.414L13.14,17.7l.007-.827H10.434l-1.4.711-.61,1.125-.242.892.4.865,1.107.135,1.759-1.176.154.583-.537,1.014,1.339.229.134,2.068,1.835.312,1.166-1.348,1.415.288.5.691,1.357-.08.038-.4.746.362.841,1.318,1.452.02.536.938.076,1.146,1.606.611,2.026.021.593.973.9.288-.172.805-.984,1.25-.287,2.769-.889.7L23.96,33.95l-.439.764.326,1.436-1.435,1.834-.458.842-1.367.656-.9.137L19.651,40l.631.181-.076.411-.565.544.343.433.68.019-.038.524-.181.517-.058.42,1.006.847-.134.44L19.89,44.31l-1.362-1.188-1.061-1.865.148-1.8-.8-1.071.325-1.815-.477-.133V32.5s-1.338-1.014-1.415-1.014-.708-.172-.708-.172L14.4,30.57l-1.739-2.18.172-.783.057-1.281,1.2-.842-.172-1.434-1.758-.132L10.791,22.35l-.975-.27-.63-.116.076-.573-.8-.114V21.6l-2.008-.5-.808-1.236.329-.6L4.7,17.411l-.218-1.357H3.967l.171,1.318.879,1.357-.1.536-.745-.115-.917-1.563V15.768L2.3,15.309V14a22.992,22.992,0,0,0,39,23.5h-.759V35.971l-.878-1.182V32.95L39,32.282l-.059-.765.852-1.625-1.613-2.849.189-1.933-1.452-.15-.535-.535h-.976l-.5.458H33.19l-.058.153h-.957l-2.2-2.5L30,20.583l.363-.133L30.5,19.7h-.516l-.211-.783,2.541-1.834v-1.3l1.244-.691.5.05H35.08l.8-.43,2.581-.2v1.319Zm-6.452-8.2.21-.324.756-.153.189.918.4.649.267.307.487.19-.459.546-.889.085h-.668l.075-.793.556-.115-.047-.373-.518-.325-.362-.248V8.15ZM32.81,9.584l.459-.736.619-.144.44.191-.04.5-.946.669h-.534V9.584Zm-12.5,2.829-.479.04.026-.333.214-.267.288.226Zm1.679-.588-.327.028-.066.316-.252.157-.4.034c-.014-.1-.022-.167-.022-.167h-.157v-.34h.659l.136-.351.262-.005.3.062Z"/>
    </g>
  </g>
</svg>
