<svg xmlns="http://www.w3.org/2000/svg" xmlns:xlink="http://www.w3.org/1999/xlink" viewBox="0 0 220.681 106.383">
  <defs>
    <style>
      .cls-1 {
        clip-path: url(#clip-Artboard_1);
      }

      .cls-2 {
        fill: #49bbd6;
      }

      .cls-3 {
        fill: #fff;
      }
    </style>
    <clipPath id="clip-Artboard_1">
      <rect width="220.681" height="106.383"/>
    </clipPath>
  </defs>
  <g id="Artboard_1" data-name="Artboard 1" class="cls-1">
    <rect class="cls-3" width="220.681" height="106.383"/>
    <g id="Group_1" data-name="Group 1">
      <path id="Path_1" data-name="Path 1" d="M4.978,5.15h18.63c10.879,0,17.458,6.45,17.458,15.895,0,10.553-8.208,16.024-18.435,16.024H15.01V50.748H4.978Zm17.979,23c5.016,0,7.947-3,7.947-7.036,0-4.494-3.127-6.9-8.143-6.9H15.01v13.94Z"/>
      <path id="Path_2" data-name="Path 2" d="M46.977,15.833h9.9v7.035c2.019-4.82,5.276-7.946,11.139-7.686V25.539H67.5c-6.579,0-10.618,3.974-10.618,12.312v12.9h-9.9Z"/>
      <path id="Path_3" data-name="Path 3" d="M70.77,40.587c0-7.622,5.8-11.14,14.07-11.14a24.8,24.8,0,0,1,8.533,1.434v-.587c0-4.1-2.54-6.383-7.491-6.383A25.676,25.676,0,0,0,76.241,25.8l-2.475-7.557a30.812,30.812,0,0,1,13.549-2.8c5.407,0,9.315,1.434,11.79,3.909,2.606,2.6,3.778,6.449,3.778,11.139V50.748H93.308V46.97A13.425,13.425,0,0,1,82.755,51.4C76.176,51.4,70.77,47.622,70.77,40.587ZM93.5,38.437V36.678a15.359,15.359,0,0,0-6.318-1.3c-4.234,0-6.84,1.694-6.84,4.951,0,2.671,2.215,4.234,5.407,4.234C90.377,44.56,93.5,42.02,93.5,38.437Z"/>
      <path id="Path_4" data-name="Path 4" d="M106.43,15.833h10.488l7.816,23.386,7.882-23.386h10.293L129.164,51.009h-8.99Z"/>
      <path id="Path_5" data-name="Path 5" d="M144.6,33.357c0-10.033,8.077-18.175,18.955-18.175,10.814,0,18.826,8.012,18.826,18.175,0,10.031-8.078,18.173-18.956,18.173C152.617,51.53,144.6,43.518,144.6,33.357Zm28.01,0c0-5.147-3.713-9.642-9.185-9.642-5.667,0-9.054,4.365-9.054,9.642,0,5.145,3.713,9.64,9.184,9.64C169.228,43,172.615,38.632,172.615,33.357Z"/>
    </g>
    <path id="Path_6" data-name="Path 6" class="cls-2" d="M18.848,71.731V66.18H5.062v37.88H18.848V98.509H12.992V71.731Z"/>
    <path id="Path_7" data-name="Path 7" class="cls-2" d="M201.918,98.51v5.551H215.7V66.181H201.918v5.551h5.855V98.51Z"/>
    <g id="Group_2" data-name="Group 2">
      <path id="Path_8" data-name="Path 8" d="M49.768,81.78a4.466,4.466,0,0,0,.1-.987q0-3.06-5.271-3.059H44.1a6.077,6.077,0,0,0-2.793.75,10.067,10.067,0,0,0-2.527,1.826A14.708,14.708,0,0,0,36.956,82.5a5.624,5.624,0,0,0-.908,1.885l-2.31,11.1H30.717l4.324-20.729h3l-.573,2.764A10.375,10.375,0,0,1,44.1,74.772H44.6a13.415,13.415,0,0,1,3.464.4,7.661,7.661,0,0,1,2.389,1.016,5.493,5.493,0,0,1,1.441,1.452,5.137,5.137,0,0,1,.75,1.589,6.406,6.406,0,0,1,.188,1.559,7.2,7.2,0,0,1-.177,1.579L49.926,95.481H46.9Z"/>
      <path id="Path_9" data-name="Path 9" d="M59.452,102.884h-3.02l5.844-28.132h3.04l-.375,1.816a11.389,11.389,0,0,1,6.416-1.8h.493a8.389,8.389,0,0,1,5.932,1.9,6.592,6.592,0,0,1,2.044,5.063,11.241,11.241,0,0,1-.257,2.251l-.631,2.961a11.694,11.694,0,0,1-3.732,6.515,10.451,10.451,0,0,1-7.146,2.508h-.494a7.951,7.951,0,0,1-6.159-2.449ZM63.4,83.991l-.711,3.356a6.558,6.558,0,0,0-.138,1.323,3.95,3.95,0,0,0,1.372,3.179,5.439,5.439,0,0,0,3.642,1.164h.494a7.666,7.666,0,0,0,5.31-1.836,8.667,8.667,0,0,0,2.685-4.817l.632-2.961a8.725,8.725,0,0,0,.177-1.659q0-4.006-5.014-4.006h-.493A7.485,7.485,0,0,0,63.4,83.991Z"/>
      <path id="Path_10" data-name="Path 10" d="M106.982,81.9a14.021,14.021,0,0,1-.316,2.783L106.33,86.3a13.27,13.27,0,0,1-3.642,7.018,9.894,9.894,0,0,1-7.2,2.656H94.485a7.654,7.654,0,0,1-5.528-1.915,7.15,7.15,0,0,1-1.993-5.41,14.272,14.272,0,0,1,.335-2.961l.316-1.58a14.061,14.061,0,0,1,1.9-4.8,9.75,9.75,0,0,1,3.563-3.288,10.536,10.536,0,0,1,5.163-1.234h1.125a9.974,9.974,0,0,1,3.455.553,5.942,5.942,0,0,1,2.389,1.53,6.5,6.5,0,0,1,1.332,2.241A8.32,8.32,0,0,1,106.982,81.9Zm-7.621-4.146H98.236a7.04,7.04,0,0,0-5.163,1.875A9.718,9.718,0,0,0,90.5,84.7l-.316,1.579a11.554,11.554,0,0,0-.257,2.369,4.4,4.4,0,0,0,1.106,3.277,4.77,4.77,0,0,0,3.455,1.086h1.007a7.131,7.131,0,0,0,5.31-1.974,10.33,10.33,0,0,0,2.646-5.33l.335-1.619a11.433,11.433,0,0,0,.237-2.191,4.174,4.174,0,0,0-1.066-3.07A4.934,4.934,0,0,0,99.361,77.753Z"/>
      <path id="Path_11" data-name="Path 11" d="M126.359,77.753h-.494a8.19,8.19,0,0,0-5.29,1.648,7.658,7.658,0,0,0-2.666,4.59l-.71,3.356a6.489,6.489,0,0,0-.139,1.323,3.95,3.95,0,0,0,1.372,3.179,5.442,5.442,0,0,0,3.643,1.164h.493q4.974,0,6.851-2.685l2.448,1.7a8.455,8.455,0,0,1-3.722,2.921,14.064,14.064,0,0,1-5.577,1.028h-.493a8.23,8.23,0,0,1-5.735-2.024A6.78,6.78,0,0,1,114.1,88.67a9.337,9.337,0,0,1,.217-1.915l.711-3.356a10.7,10.7,0,0,1,3.7-6.288,10.95,10.95,0,0,1,7.137-2.32h.494a12.445,12.445,0,0,1,5.5,1.057,4.769,4.769,0,0,1,2.675,3.306l-2.883.671Q131.156,77.752,126.359,77.753Z"/>
      <path id="Path_12" data-name="Path 12" d="M159.131,79.806a5.332,5.332,0,0,0,.118-1.027A1.09,1.09,0,0,0,159,77.97a1.788,1.788,0,0,0-1.135-.236h-.3a3.688,3.688,0,0,0-2.754,1.42,6.517,6.517,0,0,0-1.609,3.021l-2.8,13.306h-3.02l3.3-15.675a5.413,5.413,0,0,0,.118-1.027,1.823,1.823,0,0,0-.069-.572.643.643,0,0,0-.375-.336,2.4,2.4,0,0,0-.937-.137H149.1a3.771,3.771,0,0,0-2.694,1.372,6.224,6.224,0,0,0-1.668,3.069l-2.8,13.306h-3.02l4.323-20.729h3.02l-.177.869a5.866,5.866,0,0,1,3.02-.849h.317q2.762,0,3.809,1.816a6.379,6.379,0,0,1,4.344-1.816h.3a5.607,5.607,0,0,1,2.132.365,3.11,3.11,0,0,1,1.352.987,4.133,4.133,0,0,1,.661,1.274,4.724,4.724,0,0,1,.2,1.381,8.12,8.12,0,0,1-.2,1.62l-3.158,15.082h-3.02Z"/>
      <path id="Path_13" data-name="Path 13" d="M187.33,81.9a13.954,13.954,0,0,1-.317,2.783l-.335,1.619a13.27,13.27,0,0,1-3.642,7.018,9.893,9.893,0,0,1-7.2,2.656h-1.007A7.654,7.654,0,0,1,169.3,94.06a7.15,7.15,0,0,1-1.994-5.41,14.345,14.345,0,0,1,.336-2.961l.316-1.58a14.061,14.061,0,0,1,1.9-4.8,9.737,9.737,0,0,1,3.564-3.288,10.527,10.527,0,0,1,5.162-1.234h1.125a9.974,9.974,0,0,1,3.455.553,5.924,5.924,0,0,1,2.388,1.53,6.473,6.473,0,0,1,1.333,2.241A8.345,8.345,0,0,1,187.33,81.9Zm-7.621-4.146h-1.125a7.036,7.036,0,0,0-5.162,1.875,9.712,9.712,0,0,0-2.577,5.074l-.316,1.579a11.553,11.553,0,0,0-.257,2.369,4.4,4.4,0,0,0,1.107,3.277,4.764,4.764,0,0,0,3.454,1.086h1.007a7.131,7.131,0,0,0,5.31-1.974,10.33,10.33,0,0,0,2.646-5.33l.336-1.619a11.508,11.508,0,0,0,.236-2.191,4.178,4.178,0,0,0-1.066-3.07A4.936,4.936,0,0,0,179.709,77.753Z"/>
    </g>
  </g>
</svg>
