<svg xmlns="http://www.w3.org/2000/svg" viewBox="0 0 412.996 356.32">
  <defs>
    <style>
      .cls-1 {
        fill: #586c7f;
      }
    </style>
  </defs>
  <g id="prog2" transform="translate(0 -28.338)">
    <g id="Group_2" data-name="Group 2">
      <g id="Group_1" data-name="Group 1">
        <path id="Path_1" data-name="Path 1" class="cls-1" d="M393,28.338H20a20,20,0,0,0-20,20v234a20,20,0,0,0,20,20H159.5v45.32H105.215a18.5,18.5,0,1,0,0,37H307.781a18.5,18.5,0,0,0,0-37H253.5v-45.32H393a20,20,0,0,0,20-20v-234A20,20,0,0,0,393,28.338Zm-10,244H30v-214H383Z"/>
        <path id="Path_2" data-name="Path 2" class="cls-1" d="M94.591,176.637l63.084,29.336A12.263,12.263,0,0,0,175.1,194.852v-.322a12.3,12.3,0,0,0-7.1-11.119l-39.455-18.33,39.456-18.334a12.305,12.305,0,0,0,7.1-11.118v-.319a12.24,12.24,0,0,0-12.271-12.25,12.327,12.327,0,0,0-5.16,1.133L94.59,153.525A12.306,12.306,0,0,0,87.5,164.642v.878A12.314,12.314,0,0,0,94.591,176.637Z"/>
        <path id="Path_3" data-name="Path 3" class="cls-1" d="M175.662,236.389a12.3,12.3,0,0,0,9.9,5.029h.315A12.218,12.218,0,0,0,197.55,232.9l41.557-128.76a12.258,12.258,0,0,0-11.672-16h-.314a12.226,12.226,0,0,0-11.679,8.516L173.88,225.425A12.323,12.323,0,0,0,175.662,236.389Z"/>
        <path id="Path_4" data-name="Path 4" class="cls-1" d="M237.9,135.628a12.318,12.318,0,0,0,7.1,11.122l39.455,18.33-39.455,18.33a12.3,12.3,0,0,0-7.1,11.119v.322a12.265,12.265,0,0,0,17.433,11.117l63.081-29.335a12.313,12.313,0,0,0,7.089-11.115v-.878a12.3,12.3,0,0,0-7.093-11.117l-63.08-29.334A12.264,12.264,0,0,0,237.9,135.308v.32Z"/>
      </g>
    </g>
  </g>
</svg>
