<svg id="projects-gold" xmlns="http://www.w3.org/2000/svg" viewBox="0 0 496 496">
  <defs>
    <style>
      .cls-1 {
        fill: #4c71ab;
      }
    </style>
  </defs>
  <path id="Path_8" data-name="Path 8" class="cls-1" d="M360,376a39.947,39.947,0,0,1-32.574-63.145l-13.035-9.281a55.949,55.949,0,0,0,78.035,78.035l-9.281-13.035A39.689,39.689,0,0,1,360,376Zm0,0"/>
  <path id="Path_9" data-name="Path 9" class="cls-1" d="M424,176V152a32.032,32.032,0,0,0-32-32V88H368V72h16V24H336V72h16V88H328v88H312V132.336a31.9,31.9,0,0,0-26.742-31.566L264,97.223V88h-.246A39.864,39.864,0,0,0,280,56V40a40,40,0,0,0-80,0V56a39.864,39.864,0,0,0,16.246,32H216v9.223l-21.258,3.547A31.886,31.886,0,0,0,168,132.336V176h-8V132.336a31.9,31.9,0,0,0-26.742-31.566L112,97.223V88h-.246A39.864,39.864,0,0,0,128,56V40a40,40,0,0,0-80,0V56A39.864,39.864,0,0,0,64.246,88H64v9.223L42.742,100.77A31.886,31.886,0,0,0,16,132.336V176H0V496H496V176ZM352,40h16V56H352Zm24,64v16H344V104Zm45.832,195.266a71.459,71.459,0,0,1,7.871,18.992l1.242,4.887L448,326.551v18.891l-17.055,3.406-1.242,4.887a71.719,71.719,0,0,1-7.871,18.992l-2.574,4.328,9.645,14.488-13.352,13.352-14.488-9.648-4.328,2.578a71.46,71.46,0,0,1-18.992,7.871l-4.887,1.242L369.449,424h-18.89l-3.406-17.055-4.887-1.242a71.719,71.719,0,0,1-18.992-7.871l-4.328-2.574L304.457,404.9l-13.352-13.352,9.648-14.488-2.578-4.328A71.457,71.457,0,0,1,290.3,353.74l-1.242-4.887L272,345.45V326.559l17.055-3.406,1.242-4.887a71.716,71.716,0,0,1,7.871-18.992l2.574-4.328L291.1,280.457l13.352-13.352,14.488,9.648,4.328-2.578c1.52-.9,3.148-1.582,4.734-2.375v42.871l32,42.672,32-42.672v-2.594a39.785,39.785,0,0,1,.574,47.074l13.035,9.281A55.773,55.773,0,0,0,392,290.176V271.793c1.586.793,3.215,1.473,4.734,2.375l4.328,2.574L415.55,267.1l13.35,13.35-9.645,14.488ZM344,296h32v13.336l-16,21.328-16-21.328Zm32-16H344V136h32ZM216,40a24,24,0,0,1,48,0V56a24,24,0,0,1-48,0Zm-32,92.336a15.952,15.952,0,0,1,13.367-15.785L232,110.778V95.192a39.979,39.979,0,0,0,16,0v15.586l34.633,5.766A15.966,15.966,0,0,1,296,132.336V176H184ZM64,40a24,24,0,0,1,48,0V56a24,24,0,1,1-48,0ZM32,132.336a15.952,15.952,0,0,1,13.367-15.785L80,110.778V95.192a39.979,39.979,0,0,0,16,0v15.586l34.633,5.766A15.966,15.966,0,0,1,144,132.336V176H32ZM480,480H16V192H328v62.152a88.047,88.047,0,0,0-8.457,3.785L302.4,246.512l-31.9,31.894,11.434,17.145a88.054,88.054,0,0,0-5.746,13.848L256,313.449v45.109l20.191,4.051a86.718,86.718,0,0,0,5.746,13.848L270.5,393.6l31.9,31.9,17.145-11.434a88.053,88.053,0,0,0,13.848,5.746L337.449,440h45.109l4.051-20.191a86.715,86.715,0,0,0,13.848-5.746L417.6,425.5l31.9-31.9-11.434-17.145a88.054,88.054,0,0,0,5.746-13.848L464,358.551V313.442l-20.191-4.051a86.718,86.718,0,0,0-5.746-13.848L449.5,278.4l-31.9-31.9-17.143,11.43A86.175,86.175,0,0,0,392,254.145V136a16.016,16.016,0,0,1,16,16v56a24.031,24.031,0,0,0,24,24h16V216H432a8.01,8.01,0,0,1-8-8V192h56Zm0,0"/>
  <path id="Path_10" data-name="Path 10" class="cls-1" d="M240,216h16v16H240Zm0,0"/>
  <path id="Path_11" data-name="Path 11" class="cls-1" d="M208,216h16v16H208Zm0,0"/>
  <path id="Path_12" data-name="Path 12" class="cls-1" d="M176,216h16v16H176Zm0,0"/>
  <path id="Path_13" data-name="Path 13" class="cls-1" d="M192.473,328.945,212.946,288H256V272H203.055l-11.527,23.055L164.641,248H32v16H155.359Zm0,0"/>
  <path id="Path_14" data-name="Path 14" class="cls-1" d="M32,280H152v16H32Zm0,0"/>
  <path id="Path_15" data-name="Path 15" class="cls-1" d="M32,312H152v16H32Zm0,0"/>
  <path id="Path_16" data-name="Path 16" class="cls-1" d="M216,408H200v40H184V384H168v64H152V344H136V448H120V384H104v64H88V408H72v40H56v16H232V448H216Zm0,0"/>
  <path id="Path_17" data-name="Path 17" class="cls-1" d="M448,448h16v16H448Zm0,0"/>
  <path id="Path_18" data-name="Path 18" class="cls-1" d="M416,448h16v16H416Zm0,0"/>
  <path id="Path_19" data-name="Path 19" class="cls-1" d="M384,448h16v16H384Zm0,0"/>
</svg>
