<svg width="42" height="34" viewBox="0 0 42 34" fill="none" xmlns="http://www.w3.org/2000/svg">
<path d="M7.76604 34C5.33585 34 3.43396 33.305 2.06038 31.9151C0.686792 30.4182 0 28.4403 0 25.9811C0 23.7359 0.475472 21.3837 1.42642 18.9245C2.48302 16.3585 3.8566 13.8994 5.54717 11.5472C7.3434 9.19497 9.40377 7.00315 11.7283 4.9717C14.0528 2.94026 16.5887 1.28302 19.3358 0C19.7585 0.534591 20.1283 1.06918 20.4453 1.60377C20.7623 2.03145 21.0792 2.51258 21.3962 3.04717C18.966 5.18553 16.9585 7.3239 15.3736 9.46227C13.8943 11.4937 12.7321 14.3805 11.8868 18.1226C13.4717 18.5503 14.6868 19.4057 15.5321 20.6887C16.483 21.8648 16.9585 23.2013 16.9585 24.6981C16.9585 27.2642 16.0075 29.456 14.1057 31.2736C12.3094 33.0912 10.1962 34 7.76604 34ZM28.2113 34C25.8868 34 24.0377 33.305 22.6642 31.9151C21.2906 30.4182 20.6038 28.4403 20.6038 25.9811C20.6038 23.7359 21.0792 21.3837 22.0302 18.9245C22.9811 16.3585 24.3019 13.8994 25.9925 11.5472C27.7887 9.19497 29.8491 7.00315 32.1736 4.9717C34.6038 2.94026 37.1925 1.28302 39.9396 0C40.3623 0.534591 40.7321 1.06918 41.0491 1.60377C41.366 2.03145 41.683 2.51258 42 3.04717C39.5698 5.18553 37.5623 7.3239 35.9774 9.46227C34.3925 11.4937 33.1774 14.3805 32.3321 18.1226C34.0226 18.5503 35.2906 19.4057 36.1358 20.6887C37.0868 21.8648 37.5623 23.2013 37.5623 24.6981C37.5623 27.2642 36.6113 29.456 34.7094 31.2736C32.8075 33.0912 30.6415 34 28.2113 34Z" fill="url(#paint0_linear)" fill-opacity="0.1"/>
<defs>
<linearGradient id="paint0_linear" x1="21" y1="0" x2="21" y2="34" gradientUnits="userSpaceOnUse">
<stop/>
<stop offset="1" stop-opacity="0.25"/>
</linearGradient>
</defs>
</svg>
