<svg width="72" height="72" viewBox="0 0 72 72" fill="none" xmlns="http://www.w3.org/2000/svg">
<g clip-path="url(#clip0)">
<path d="M32.5162 22.0645C32.5162 22.7058 31.9962 23.2258 31.3549 23.2258C30.7136 23.2258 30.1936 22.7058 30.1936 22.0645C30.1936 21.4232 30.7136 20.9032 31.3549 20.9032C31.9962 20.9032 32.5162 21.4232 32.5162 22.0645Z" fill="#586C7F"/>
<path d="M41.8065 22.0645C41.8065 22.7058 41.2865 23.2258 40.6452 23.2258C40.0039 23.2258 39.4839 22.7058 39.4839 22.0645C39.4839 21.4232 40.0039 20.9032 40.6452 20.9032C41.2865 20.9032 41.8065 21.4232 41.8065 22.0645Z" fill="#586C7F"/>
<path d="M35.9999 30.1936C34.719 30.1936 33.6773 29.1519 33.6773 27.871H31.3547C31.3547 30.4328 33.438 32.5161 35.9999 32.5161C38.5618 32.5161 40.6451 30.4328 40.6451 27.871H38.3225C38.3225 29.1519 37.2808 30.1936 35.9999 30.1936Z" fill="#586C7F"/>
<path d="M9.29028 33.6774H19.7419V36H9.29028V33.6774Z" fill="#586C7F"/>
<path d="M69.6774 15.0968V2.32258H67.3548V15.0968H65.0323V5.80645H62.7097V15.0968H60.3871V11.6129H58.0645V15.0968H56.1854L54.5806 18.3068L54.1372 17.4194H51.0968V13.4768C51.0968 10.5282 49.6627 7.78768 47.2506 6.10585L46.7176 5.43958C43.9515 1.98349 39.8252 0 35.3972 0C30.5548 0 26.2697 2.39573 23.6358 6.05595C21.3308 2.33052 17.2356 0 12.7742 0C5.73104 0 0 5.73104 0 12.7742C0 19.4261 5.11183 24.9003 11.6129 25.4894V31.3548H19.7419V29.0323H13.9355V25.482C16.5393 25.2501 18.9651 24.2572 20.9406 22.6055C21.0586 23.8507 21.5638 25.0364 22.4127 25.9697C23.2581 26.9002 24.3837 27.5166 25.6017 27.7547C25.8087 29.8301 26.6275 31.7251 27.871 33.2652V37.3717L16.9861 39.5479C13.1995 40.3049 10.4516 43.659 10.4516 47.5188V59.2258H12.7742V63.871C12.7742 65.1519 13.8158 66.1936 15.0968 66.1936H24.3871V72H51.0968V66.1936H56.9032C58.1842 66.1936 59.2258 65.1519 59.2258 63.871V59.2258H61.5484V47.5188C61.5484 43.659 58.8005 40.3049 55.0139 39.5479L44.129 37.3717V33.2652C45.3725 31.7251 46.1913 29.8301 46.3983 27.7547C47.6152 27.5166 48.7419 26.9013 49.5873 25.9697C50.557 24.9025 51.0611 23.5031 51.0645 22.0645H51.0968V19.7419H52.7015L54.5806 23.4997L57.6211 17.4194H72V15.0968H69.6774ZM35.3972 2.32258C39.1159 2.32258 42.581 3.98797 44.9025 6.89119L45.5449 7.69355L45.808 7.93511C47.6651 9.17181 48.7742 11.2449 48.7742 13.4768V17.518C48.0949 17.0037 47.3095 16.6249 46.4516 16.4287V13.9355H44.129V16.1271C43.4389 15.9547 42.8027 15.6122 42.2873 15.0979L40.8737 13.6849L40.1246 14.0585C37.2475 15.4977 34.0244 16.2581 30.8065 16.2581H27.871V13.9355H25.5484V16.4287C24.6905 16.6249 23.9051 17.0037 23.2258 17.518V14.494C23.2258 7.78314 28.6864 2.32258 35.3972 2.32258ZM22.2618 8.40801C21.7906 9.42017 21.4209 10.4902 21.1935 11.6129H20.8102C20.2982 8.06042 17.488 5.25019 13.9355 4.73815V2.40764C17.5458 2.8125 20.7206 5.0642 22.2618 8.40801ZM12.7742 18.5806C9.57271 18.5806 6.96774 15.9757 6.96774 12.7742C6.96774 9.57271 9.57271 6.96774 12.7742 6.96774C15.9757 6.96774 18.5806 9.57271 18.5806 12.7742C18.5806 15.9757 15.9757 18.5806 12.7742 18.5806ZM11.6129 2.39119V4.73815C8.06042 5.25019 5.25019 8.06042 4.73815 11.6129H2.39119C2.92874 6.77722 6.77608 2.92874 11.6129 2.39119ZM2.39119 13.9355H4.73815C5.25019 17.488 8.06042 20.2982 11.6129 20.8102V23.1572C6.77608 22.6196 2.92874 18.7712 2.39119 13.9355ZM13.9355 23.1595V20.8102C17.488 20.2982 20.2982 17.488 20.8102 13.9355H20.931C20.9242 14.1226 20.9032 14.3058 20.9032 14.494V19.3206C19.1522 21.4969 16.6771 22.8601 13.9355 23.1595ZM23.2423 21.7186C23.3676 20.4048 24.2986 19.3042 25.5484 18.8313V25.3312C25.0131 25.1407 24.5192 24.8368 24.1302 24.4081C23.4628 23.6715 23.147 22.7172 23.2423 21.7186ZM28.7873 39.5547L34.0341 43.0528L30.7186 45.7048L28.4386 39.6256L28.7873 39.5547ZM36 44.4551L38.4944 46.4516H33.5045L36 44.4551ZM37.9659 43.0528L43.2127 39.5547L43.9351 39.6988L41.3409 45.7513L37.9659 43.0528ZM41.8064 37.7011L36 41.5717L30.1935 37.7011V35.3938C31.8555 36.5086 33.8526 37.1613 36 37.1613C38.1474 37.1613 40.1445 36.5086 41.8064 35.3938V37.7011ZM12.7742 56.9032V47.5188C12.7742 44.7607 14.7367 42.3661 17.4426 41.8252L26.1313 40.0878L28.518 46.4516H24.3871V56.9032H19.7419V47.6129H17.4194V56.9032H12.7742ZM15.0968 59.2258H30.1935C31.4745 59.2258 32.5161 60.2674 32.5161 61.5484C32.5161 62.8293 31.4745 63.871 30.1935 63.871H15.0968V59.2258ZM56.9032 63.871H48.7742V69.6774H26.7097V66.1936H30.1935C32.7554 66.1936 34.8387 64.1103 34.8387 61.5484C34.8387 58.9865 32.7554 56.9032 30.1935 56.9032H26.7097V48.7742H45.2903V56.9032H41.8064C39.2446 56.9032 37.1613 58.9865 37.1613 61.5484C37.1613 64.1103 39.2446 66.1936 41.8064 66.1936H46.4516V63.871H41.8064C40.5255 63.871 39.4839 62.8293 39.4839 61.5484C39.4839 60.2674 40.5255 59.2258 41.8064 59.2258H56.9032V63.871ZM59.2258 47.5188V56.9032H54.5806V47.6129H52.2581V56.9032H47.6129V46.4516H43.5671L46.2611 40.1654L54.5574 41.8252C57.2633 42.3661 59.2258 44.7607 59.2258 47.5188ZM36 34.8387C31.5187 34.8387 27.871 31.1921 27.871 26.7097V18.5806H30.8065C34.1027 18.5806 37.4028 17.8628 40.4036 16.4985L40.6452 16.74C41.6023 17.6955 42.8169 18.2858 44.129 18.4865V26.7097C44.129 31.1921 40.4813 34.8387 36 34.8387ZM47.8698 24.4069C47.4808 24.8356 46.9869 25.1396 46.4516 25.3301V18.8301C47.7014 19.3042 48.6324 20.4037 48.7577 21.7175C48.853 22.7172 48.5372 23.6715 47.8698 24.4069Z" fill="#586C7F"/>
<path d="M51.0967 29.0323H67.3547V31.3549H51.0967V29.0323Z" fill="#586C7F"/>
<path d="M69.6775 29.0323H72.0001V31.3549H69.6775V29.0323Z" fill="#586C7F"/>
<path d="M51.0967 33.6774H71.9999V36H51.0967V33.6774Z" fill="#586C7F"/>
<path d="M4.64526 33.6774H6.96784V36H4.64526V33.6774Z" fill="#586C7F"/>
<path d="M0 33.6774H2.32258V36H0V33.6774Z" fill="#586C7F"/>
</g>
<defs>
<clipPath id="clip0">
<rect width="72" height="72" fill="white"/>
</clipPath>
</defs>
</svg>
