<svg width="72" height="72" viewBox="0 0 72 72" fill="none" xmlns="http://www.w3.org/2000/svg">
<path d="M70.875 68.625H68.625V70.875H70.875V68.625Z" fill="#586C7F"/>
<path d="M3.375 68.625H1.125V70.875H3.375V68.625Z" fill="#586C7F"/>
<path d="M54 36C53.3801 36 52.875 35.4949 52.875 34.875H50.625C50.625 36.3398 51.5689 37.5773 52.875 38.043V40.5H55.125V38.043C56.4311 37.5773 57.375 36.3398 57.375 34.875C57.375 33.0142 55.8608 31.5 54 31.5C53.3801 31.5 52.875 30.9949 52.875 30.375C52.875 29.7551 53.3801 29.25 54 29.25C54.6199 29.25 55.125 29.7551 55.125 30.375H57.375C57.375 28.9102 56.4311 27.6727 55.125 27.207V24.75H52.875V27.207C51.5689 27.6727 50.625 28.9102 50.625 30.375C50.625 32.2358 52.1392 33.75 54 33.75C54.6199 33.75 55.125 34.2551 55.125 34.875C55.125 35.4949 54.6199 36 54 36Z" fill="#586C7F"/>
<path d="M54 45C60.8231 45 66.375 39.4481 66.375 32.625C66.375 26.1068 61.3058 20.7619 54.9034 20.2961C55.0451 19.5413 55.125 18.7751 55.125 18V16.875H47.25C43.065 16.875 39.366 18.9686 37.125 22.1569V19.125C37.125 16.6432 39.1432 14.625 41.625 14.625H42.75V11.25C42.75 6.9075 46.2825 3.375 50.625 3.375H56.25V4.5C56.25 8.8425 52.7175 12.375 48.375 12.375H45V14.625H48.375C53.9572 14.625 58.5 10.0822 58.5 4.5V1.125H50.625C45.0428 1.125 40.5 5.66775 40.5 11.25V12.4684C38.097 12.8734 36.1238 14.5541 35.2957 16.7861C34.3057 15.7252 32.9918 14.9693 31.5 14.7184V14.625C35.2226 14.625 38.25 11.5976 38.25 7.875C38.25 4.15237 35.2226 1.125 31.5 1.125C29.0599 1.125 26.9246 2.43 25.7389 4.37512C24.3821 3.72487 22.8983 3.375 21.375 3.375H13.5V6.75C13.5 8.27325 13.8499 9.75712 14.5001 11.1139C12.555 12.3007 11.25 14.4349 11.25 16.875C11.25 20.2275 13.7093 23.0096 16.9178 23.5305C17.055 25.209 17.5286 26.8189 18.3127 28.2926C12.4076 29.2275 7.875 34.3372 7.875 40.5C7.875 46.0283 11.52 50.7195 16.5319 52.3024C14.949 53.5421 13.8454 55.3691 13.5686 57.4571C10.3466 57.9656 7.875 60.7624 7.875 64.125C7.875 65.8552 8.53425 67.4291 9.6075 68.625H5.625V70.875H66.375V68.625H62.3925C63.4657 67.4291 64.125 65.8552 64.125 64.125C64.125 60.4024 61.0976 57.375 57.375 57.375C56.9002 57.375 56.43 57.4256 55.9676 57.5269C55.0496 54.1541 51.9941 51.75 48.375 51.75C46.3343 51.75 44.4161 52.533 42.9615 53.9167C41.9209 53.2609 40.6935 52.875 39.375 52.875C38.5853 52.875 37.8304 53.019 37.125 53.2687V34.875V33.75V30.375H41.8399C41.7049 31.1063 41.625 31.8555 41.625 32.625C41.625 39.4481 47.1769 45 54 45ZM31.5 3.375C33.9818 3.375 36 5.39325 36 7.875C36 10.3568 33.9818 12.375 31.5 12.375C29.0182 12.375 27 10.3568 27 7.875C27 5.39325 29.0182 3.375 31.5 3.375ZM15.75 5.625H21.375C22.6103 5.625 23.8084 5.92537 24.8985 6.47212C24.8029 6.9255 24.75 7.3935 24.75 7.875C24.75 10.8079 26.6321 13.302 29.25 14.2312V16.875H30.375C32.8568 16.875 34.875 18.8932 34.875 21.375V26.6569C32.634 23.4686 28.935 21.375 24.75 21.375H23.0175C24.0907 20.1791 24.75 18.6052 24.75 16.875H27V14.625H24.3562C23.427 12.0071 20.9329 10.125 18 10.125C17.5196 10.125 17.0505 10.1779 16.5982 10.2735C16.0504 9.18338 15.75 7.98525 15.75 6.75V5.625ZM31.2592 34.875H34.875V54.6075C34.6995 54.765 34.533 54.9315 34.3744 55.107C33.1684 54.3949 31.788 54 30.375 54C29.5706 54 28.7933 54.1226 28.062 54.3476C27.3881 53.2631 26.4622 52.3822 25.3879 51.7432C29.6505 49.788 32.625 45.4894 32.625 40.5C32.625 38.4739 32.1255 36.5648 31.2592 34.875ZM29.7889 32.625C27.6424 30.0296 24.4564 28.3376 20.8766 28.1565C19.9519 26.7919 19.3658 25.2551 19.1858 23.625H24.75C29.9531 23.625 34.2517 27.5693 34.8131 32.625H29.7889ZM18 21.375C15.5182 21.375 13.5 19.3568 13.5 16.875C13.5 14.3932 15.5182 12.375 18 12.375C20.4818 12.375 22.5 14.3932 22.5 16.875C22.5 19.3568 20.4818 21.375 18 21.375ZM10.125 40.5C10.125 34.9178 14.6678 30.375 20.25 30.375C25.8323 30.375 30.375 34.9178 30.375 40.5C30.375 46.0834 25.8323 50.625 20.25 50.625C14.6678 50.625 10.125 46.0834 10.125 40.5ZM39.375 55.125C41.8568 55.125 43.875 57.1432 43.875 59.625H46.125C46.125 58.0365 45.5704 56.5762 44.6479 55.422C45.6694 54.5141 46.9811 54 48.375 54C51.2955 54 53.7019 56.1904 53.973 59.0962L54.1181 60.6577L55.5502 60.021C56.1397 59.7578 56.7529 59.625 57.375 59.625C59.8568 59.625 61.875 61.6432 61.875 64.125C61.875 66.6068 59.8568 68.625 57.375 68.625H14.625C12.1432 68.625 10.125 66.6068 10.125 64.125C10.125 61.6432 12.1432 59.625 14.625 59.625H15.75V58.5C15.75 55.3984 18.2734 52.875 21.375 52.875C23.2493 52.875 24.9705 53.8166 26.0077 55.3264C23.895 56.7405 22.5 59.148 22.5 61.875H24.75C24.75 58.7734 27.2734 56.25 30.375 56.25C31.3717 56.25 32.3179 56.5065 33.1605 56.9902C32.8162 57.8003 32.625 58.6901 32.625 59.625H34.875C34.875 57.1432 36.8932 55.125 39.375 55.125ZM64.125 32.625C64.125 38.2084 59.5822 42.75 54 42.75C48.4178 42.75 43.875 38.2084 43.875 32.625C43.875 27.0427 48.4178 22.5 54 22.5C59.5822 22.5 64.125 27.0427 64.125 32.625ZM37.1869 28.125C37.7482 23.0693 42.0469 19.125 47.25 19.125H52.8131C52.7681 19.5345 52.6894 19.9361 52.5949 20.3355C47.9734 20.8609 44.1247 23.94 42.4845 28.125H37.1869Z" fill="#586C7F"/>
<path d="M21.375 48.375V45.918C22.6811 45.4523 23.625 44.2148 23.625 42.75C23.625 40.8892 22.1108 39.375 20.25 39.375C19.6301 39.375 19.125 38.871 19.125 38.25C19.125 37.629 19.6301 37.125 20.25 37.125C20.8699 37.125 21.375 37.629 21.375 38.25H23.625C23.625 36.7852 22.6811 35.5477 21.375 35.082V32.625H19.125V35.082C17.8189 35.5477 16.875 36.7852 16.875 38.25C16.875 40.1108 18.3892 41.625 20.25 41.625C20.8699 41.625 21.375 42.129 21.375 42.75C21.375 43.371 20.8699 43.875 20.25 43.875C19.6301 43.875 19.125 43.371 19.125 42.75H16.875C16.875 44.2148 17.8189 45.4523 19.125 45.918V48.375H21.375Z" fill="#586C7F"/>
</svg>
