<svg xmlns="http://www.w3.org/2000/svg" viewBox="0 0 932.178 922.705">
  <defs>
    <style>
      .cls-1 {
        fill: #fff;
      }
    </style>
  </defs>
  <g id="settings-gears" transform="translate(-0.001 -4.737)">
    <path id="Path_1" data-name="Path 1" class="cls-1" d="M61.2,341.538a226.951,226.951,0,0,0,20.3,48.2L57,420.638a25.362,25.362,0,0,0,1.9,33.6l42.2,42.2a25.251,25.251,0,0,0,33.6,1.9l30.7-24.3a223.049,223.049,0,0,0,50.1,21.2l4.6,39.5a25.3,25.3,0,0,0,25.1,22.4h59.7a25.3,25.3,0,0,0,25.1-22.4l4.4-38.1a225.615,225.615,0,0,0,53.7-21.7l29.7,23.5a25.362,25.362,0,0,0,33.6-1.9l42.2-42.2a25.251,25.251,0,0,0,1.9-33.6l-23.1-29.3a220.381,220.381,0,0,0,22.1-52.8l35.6-4.1a25.3,25.3,0,0,0,22.4-25.1v-59.7a25.3,25.3,0,0,0-22.4-25.1l-35.1-4.1a221.8,221.8,0,0,0-21.2-52.2l21.6-27.3a25.362,25.362,0,0,0-1.9-33.6l-42.1-42.1a25.251,25.251,0,0,0-33.6-1.9l-26.5,21a222.557,222.557,0,0,0-54.9-23l-4-34.3a25.3,25.3,0,0,0-25.1-22.4H247.6a25.3,25.3,0,0,0-25.1,22.4l-4,34.3a221.627,221.627,0,0,0-56.3,23.8l-27.5-21.8a25.362,25.362,0,0,0-33.6,1.9l-42.2,42.2a25.251,25.251,0,0,0-1.9,33.6l23,29.1a217.538,217.538,0,0,0-20.8,52.7l-36.8,4.2A25.3,25.3,0,0,0,0,252.237v59.7a25.3,25.3,0,0,0,22.4,25.1Zm216.3-161.5a98.7,98.7,0,1,1-98.7,98.7A98.842,98.842,0,0,1,277.5,180.038Z"/>
    <path id="Path_2" data-name="Path 2" class="cls-1" d="M867.7,356.238l-31.5-26.6a24.916,24.916,0,0,0-33.2.9l-17.4,16.3a179.854,179.854,0,0,0-46.4-15l-4.9-24a25.149,25.149,0,0,0-26.6-20l-41.1,3.5a25.041,25.041,0,0,0-22.9,24.1l-.8,24.4a180.351,180.351,0,0,0-44.3,23.3l-20.8-13.8a24.985,24.985,0,0,0-32.9,4.7l-26.6,31.7a24.917,24.917,0,0,0,.9,33.2l18.2,19.4a186.389,186.389,0,0,0-13.4,44.4l-26,5.3a25.148,25.148,0,0,0-20,26.6l3.5,41.1a25.041,25.041,0,0,0,24.1,22.9l28.1.9a183.64,183.64,0,0,0,19.9,38l-15.7,23.7a24.986,24.986,0,0,0,4.7,32.9l31.5,26.6a24.918,24.918,0,0,0,33.2-.9l20.6-19.3a180.562,180.562,0,0,0,42.3,13.8l5.7,28.2a25.148,25.148,0,0,0,26.6,20l41.1-3.5a25.04,25.04,0,0,0,22.9-24.1l.9-27.6a184.843,184.843,0,0,0,42.3-21.4l22.7,15a24.985,24.985,0,0,0,32.9-4.7l26.6-31.5a24.919,24.919,0,0,0-.9-33.2l-18.3-19.4a180.088,180.088,0,0,0,14.4-44.6l25-5.1a25.148,25.148,0,0,0,20-26.6l-3.5-41.1a25.04,25.04,0,0,0-24.1-22.9l-25.1-.8a181.6,181.6,0,0,0-20.9-41.2l13.7-20.6A24.857,24.857,0,0,0,867.7,356.238Zm-154.9,237.6a80.787,80.787,0,1,1,73.7-87.3A80.8,80.8,0,0,1,712.8,593.837Z"/>
    <path id="Path_3" data-name="Path 3" class="cls-1" d="M205,704.438a24.981,24.981,0,0,0-22.4,24.6l-.3,25.3a24.924,24.924,0,0,0,21.8,25.1l18.6,2.4a144.286,144.286,0,0,0,13.2,32.3l-12,14.8a24.933,24.933,0,0,0,1.5,33.2l17.7,18.1a24.967,24.967,0,0,0,33.2,2.3l14.9-11.5a146.068,146.068,0,0,0,33.2,14.5l2,19.2a24.982,24.982,0,0,0,24.6,22.4l25.3.3a24.923,24.923,0,0,0,25.1-21.8l2.3-18.2a150.244,150.244,0,0,0,36-14l14,11.3a24.934,24.934,0,0,0,33.2-1.5l18.1-17.7a24.968,24.968,0,0,0,2.3-33.2l-10.7-13.9a145.027,145.027,0,0,0,15.2-35l16.6-1.7a24.983,24.983,0,0,0,22.4-24.6l.3-25.3a24.921,24.921,0,0,0-21.8-25.1l-16.2-2.1a150.653,150.653,0,0,0-13.7-35l10.1-12.4a24.933,24.933,0,0,0-1.5-33.2l-17.7-18.1a24.966,24.966,0,0,0-33.2-2.3l-12.1,9.3a147.087,147.087,0,0,0-36.4-15.8l-1.6-15.7a24.98,24.98,0,0,0-24.6-22.4l-25.3-.3a24.924,24.924,0,0,0-25.1,21.8l-2,15.6a151.041,151.041,0,0,0-37.7,15.4l-12.5-10.2a24.935,24.935,0,0,0-33.2,1.5l-18.2,17.8a24.965,24.965,0,0,0-2.3,33.2l10.7,13.8a146.365,146.365,0,0,0-14.3,35Zm163.3-28.6a65.805,65.805,0,1,1-66.6,65A65.859,65.859,0,0,1,368.3,675.837Z"/>
  </g>
</svg>
