<svg xmlns="http://www.w3.org/2000/svg" viewBox="0 0 16 14">
  <defs>
    <style>
      .cls-1 {
        fill: #9e9e9d;
      }
    </style>
  </defs>
  <path id="twitter" class="cls-1" d="M16,1.657a6.462,6.462,0,0,1-1.89.558A3.479,3.479,0,0,0,15.553.263a6.279,6.279,0,0,1-2.08.855A3.183,3.183,0,0,0,11.077,0,3.413,3.413,0,0,0,7.8,3.533a3.907,3.907,0,0,0,.076.806A9.084,9.084,0,0,1,1.114.644,3.768,3.768,0,0,0,.665,2.43,3.616,3.616,0,0,0,2.122,5.365,3.064,3.064,0,0,1,.64,4.93v.039A3.494,3.494,0,0,0,3.268,8.44a3.054,3.054,0,0,1-.86.116,2.7,2.7,0,0,1-.621-.06,3.353,3.353,0,0,0,3.065,2.461A6.3,6.3,0,0,1,.785,12.463,5.716,5.716,0,0,1,0,12.415,8.763,8.763,0,0,0,5.032,14c6.036,0,9.336-5.385,9.336-10.052,0-.156-.005-.307-.012-.457A6.845,6.845,0,0,0,16,1.657Z"/>
</svg>
