<svg width="72" height="72" viewBox="0 0 72 72" fill="none" xmlns="http://www.w3.org/2000/svg">
<path d="M67.3547 6.38675H4.64526C2.08339 6.38675 0 8.47014 0 11.032V52.8386C0 55.4004 2.08339 57.4838 4.64526 57.4838H25.5484V63.2904H17.4195V65.613H25.5484H46.4516H54.5805V63.2904H46.4516V57.4838H67.3547C69.9166 57.4838 72 55.4004 72 52.8386V11.032C72 8.47014 69.9166 6.38675 67.3547 6.38675ZM44.129 63.2902H27.8708V57.4836H44.129V63.2902ZM69.6774 52.8386C69.6774 54.1194 68.6358 55.1612 67.3547 55.1612H46.4516H25.5484H4.64526C3.36445 55.1612 2.32263 54.1196 2.32263 52.8386V11.032C2.32263 9.75119 3.3642 8.70938 4.64526 8.70938H67.3547C68.6356 8.70938 69.6774 9.75095 69.6774 11.032V52.8386Z" fill="#586C7F"/>
<path d="M4.64526 52.8386H67.3548V11.032H4.64526V52.8386ZM6.96765 13.3549H65.0321V50.5162H6.96765V13.3549Z" fill="#586C7F"/>
<path d="M10.4516 18.0001C11.093 18.0001 11.6129 17.4802 11.6129 16.8388C11.6129 16.1974 11.093 15.6775 10.4516 15.6775C9.81022 15.6775 9.29028 16.1974 9.29028 16.8388C9.29028 17.4802 9.81022 18.0001 10.4516 18.0001Z" fill="#586C7F"/>
<path d="M13.9355 18.0001C14.5769 18.0001 15.0969 17.4802 15.0969 16.8388C15.0969 16.1974 14.5769 15.6775 13.9355 15.6775C13.2942 15.6775 12.7742 16.1974 12.7742 16.8388C12.7742 17.4802 13.2942 18.0001 13.9355 18.0001Z" fill="#586C7F"/>
<path d="M17.4195 18.0001C18.0608 18.0001 18.5808 17.4802 18.5808 16.8388C18.5808 16.1974 18.0608 15.6775 17.4195 15.6775C16.7781 15.6775 16.2581 16.1974 16.2581 16.8388C16.2581 17.4802 16.7781 18.0001 17.4195 18.0001Z" fill="#586C7F"/>
<path d="M9.29028 34.258H25.5484V20.3225H9.29028V34.258ZM11.6129 22.6449H23.2258V31.9352H11.6129V22.6449Z" fill="#586C7F"/>
<path d="M27.871 34.258H44.1292V20.3225H27.871V34.258ZM30.1937 22.6449H41.8065V31.9352H30.1937V22.6449Z" fill="#586C7F"/>
<path d="M46.4516 34.258H62.7097V20.3225H46.4516V34.258ZM48.7742 22.6449H60.3871V31.9352H48.7742V22.6449Z" fill="#586C7F"/>
<path d="M44.129 36.5804H9.29028V38.9031H44.129V36.5804Z" fill="#586C7F"/>
<path d="M44.129 41.2257H9.29028V43.5483H44.129V41.2257Z" fill="#586C7F"/>
<path d="M44.129 45.8707H9.29028V48.1933H44.129V45.8707Z" fill="#586C7F"/>
<path d="M62.7097 36.5804H47.6129V38.9031H62.7097V36.5804Z" fill="#586C7F"/>
<path d="M62.7097 41.2257H47.6129V43.5483H62.7097V41.2257Z" fill="#586C7F"/>
<path d="M62.7097 45.8707H47.6129V48.1933H62.7097V45.8707Z" fill="#586C7F"/>
</svg>
