<svg id="whatsapp" xmlns="http://www.w3.org/2000/svg" viewBox="0 0 512 512">
  <defs>
    <style>
      .cls-1 {
        fill: #9e9e9d;
      }

      .cls-2 {
        fill: #fafafa;
      }
    </style>
  </defs>
  <path id="Path_32" data-name="Path 32" class="cls-1" d="M256.064,0h-.128C114.784,0,0,114.816,0,256A254.1,254.1,0,0,0,48.736,406.048l-31.9,95.1,98.4-31.456A253.786,253.786,0,0,0,256.064,512C397.216,512,512,397.152,512,256S397.216,0,256.064,0Z"/>
  <path id="Path_33" data-name="Path 33" class="cls-2" d="M405.024,361.5c-6.176,17.44-30.688,31.9-50.24,36.128-13.376,2.848-30.848,5.12-89.664-19.264C189.888,347.2,141.44,270.752,137.664,265.792c-3.616-4.96-30.4-40.48-30.4-77.216s18.656-54.624,26.176-62.3c6.176-6.3,16.384-9.184,26.176-9.184,3.168,0,6.016.16,8.576.288,7.52.32,11.3.768,16.256,12.64,6.176,14.88,21.216,51.616,23.008,55.392,1.824,3.776,3.648,8.9,1.088,13.856-2.4,5.12-4.512,7.392-8.288,11.744s-7.36,7.68-11.136,12.352c-3.456,4.064-7.36,8.416-3.008,15.936,4.352,7.36,19.392,31.9,41.536,51.616,28.576,25.44,51.744,33.568,60.032,37.024,6.176,2.56,13.536,1.952,18.048-2.848,5.728-6.176,12.8-16.416,20-26.5,5.12-7.232,11.584-8.128,18.368-5.568,6.912,2.4,43.488,20.48,51.008,24.224,7.52,3.776,12.48,5.568,14.3,8.736C411.2,329.152,411.2,344.032,405.024,361.5Z"/>
</svg>
