<svg xmlns="http://www.w3.org/2000/svg" viewBox="0 0 479.487 479.063">
  <defs>
    <style>
      .cls-1 {
        fill: #586c7f;
      }
    </style>
  </defs>
  <g id="worlds" transform="translate(0.048 -0.22)">
    <path id="Path_29" data-name="Path 29" class="cls-1" d="M478.637,221.766a7.7,7.7,0,0,0,.473-2.336,8.006,8.006,0,0,0-.4-2.484l-.617-1.746A239.272,239.272,0,0,0,390.973,54.114c-3.52-2.867-7.2-5.457-10.879-8.113-.184-.152-.281-.367-.48-.512s-.359-.129-.527-.234A240.457,240.457,0,0,0,239.438.231c-2.062,0-4.137,0-5.68.16A234.424,234.424,0,0,0,155.583,15.43a71.914,71.914,0,0,0-116.145,56.8,75.986,75.986,0,0,0,6.281,26.52,240.507,240.507,0,0,0-21.48,35.395c-.121.191-.191.4-.3.6-56.719,117.277-9.523,258.391,106.34,317.945S388.36,468.5,450.72,354.121A236.268,236.268,0,0,0,479.1,251.961c.25-3.859.336-7.793.336-11.73,0-6.2-.32-12.344-.8-18.465Zm-23.246-41.055c-1.016-.9-1.953-1.945-3.016-2.777a105.43,105.43,0,0,0-34.93-17.445,75.194,75.194,0,0,0-35.078-.367,69.159,69.159,0,0,1-29.883.148c-19.125-4.176-34.238-7.469-42.254-20.27-11.48-18.4-6.1-44.266,6.016-53.367a18.255,18.255,0,0,1,13.688-2.922,51.14,51.14,0,0,0,24.8-4.176,64.281,64.281,0,0,0,21.6-16.449c1.512,1.168,3.109,2.219,4.59,3.426a223.691,223.691,0,0,1,74.465,114.2ZM111.438,16.231a56.088,56.088,0,0,1,56,56c0,23.93-35.941,78.715-56,106.488A502.763,502.763,0,0,1,62.086,96.712a66.68,66.68,0,0,1-6.648-24.48,56.063,56.063,0,0,1,56-56Zm-96,224a226.517,226.517,0,0,1,4.488-44.391c.855,11.121,2.3,21.016,3.6,29.6,4.957,32.8,9.641,63.723,33.816,92,10.109,11.914,27.039,31.832,53.215,34.777s58.953-12.113,68.422-16.8l3.633-1.832a35.187,35.187,0,0,1,16.715-5.352A39.459,39.459,0,0,1,225.5,341.6c13.652,15.113,17.117,40.348,7.414,54a24.569,24.569,0,0,1-12.289,8.539,37.373,37.373,0,0,0-20.062,16,49.4,49.4,0,0,0-3.457,40A224.347,224.347,0,0,1,15.438,240.232Zm224,224a225.647,225.647,0,0,1-23.145-1.191,28.332,28.332,0,0,1-1.824-2.625,34.042,34.042,0,0,1-.152-32.094,22.07,22.07,0,0,1,12.563-9.449,39.862,39.862,0,0,0,19.078-14.008C259.872,385.3,255.934,351.4,237.4,330.9A54.938,54.938,0,0,0,199.5,312.231h-.355a48.485,48.485,0,0,0-23.832,7.1l-3.414,1.727c-17.48,8.617-42.352,17.137-59.566,15.2-19.867-2.223-33.664-18.48-42.816-29.246-21.219-24.8-25.371-52.242-30.168-84a230.03,230.03,0,0,1-.609-82.281,224.378,224.378,0,0,1,14.5-25.121c.266.531.559,1.074.8,1.6.512,1.016,1.039,2.023,1.6,3.039.8,1.512,1.6,3.023,2.4,4.547q.826,1.535,1.68,3.078,1.271,2.279,2.566,4.559c.578,1.008,1.152,2.02,1.738,3.027Q65.36,137.737,66.7,140c.59.992,1.176,1.977,1.773,2.961.945,1.6,1.9,3.094,2.852,4.637.543.875,1.078,1.762,1.6,2.625,1.184,1.9,2.359,3.738,3.535,5.6.313.48.625.984.93,1.457q2.2,3.4,4.344,6.645c.543.8,1.07,1.6,1.6,2.4.879,1.32,1.758,2.641,2.613,3.9l1.9,2.777c.688,1.016,1.383,2.031,2.055,3l1.918,2.758c.594.859,1.188,1.7,1.754,2.5s1.207,1.723,1.8,2.547.992,1.4,1.465,2.063l1.6,2.207,1.3,1.809,1.273,1.754,1.039,1.406.977,1.328.582.8c.715.969,1.258,1.7,1.41,1.895a7.992,7.992,0,0,0,12.8,0c6.715-8.9,65.617-87.871,65.617-124.848,0-2.336-.145-4.656-.367-6.961-.07-.711-.184-1.422-.273-2.133-.207-1.6-.453-3.2-.8-4.8-.152-.8-.32-1.551-.5-2.32q-.557-2.4-1.289-4.8c-.2-.641-.367-1.289-.578-1.918-.719-2.145-1.527-4.266-2.445-6.328-.176-.395-.387-.8-.57-1.16-.8-1.664-1.6-3.312-2.52-4.922-.4-.719-.84-1.414-1.27-2.121q-1.154-1.893-2.4-3.727c-.5-.711-1-1.422-1.52-2.121-.273-.352-.5-.727-.8-1.07a218.469,218.469,0,0,1,51.41-10.656c-12.473,23.543-16.547,45.32-11.891,64.8a83.412,83.412,0,0,0,19.2,35c7.527,9.32,12.941,16.039,12.605,27.008-.687,23.2-26.887,42.512-36.8,49.809a137.761,137.761,0,0,1-42.957,20.75c-14.531,4.746-27.066,8.84-31.859,23.145a45.607,45.607,0,0,0,19.371,49.328,40.412,40.412,0,0,0,31.879,2.816,98.4,98.4,0,0,1,35.3-1.687c15.2,2.152,28.3,4,34.52,12.7,3.688,5.2,3.5,10.574,2.777,20.434a96.923,96.923,0,0,0,4.148,41.461c3.648,10.945,9.16,27.473,22.4,29.379a16.559,16.559,0,0,0,2.6.207c9.371,0,15.105-8.273,21.137-16.977,2.664-3.848,5.6-8,9.121-12.168,16.465,26.6,33.191,48.8,33.969,49.855a8,8,0,0,0,12.8,0,665.066,665.066,0,0,0,47.352-72.91,105.122,105.122,0,0,1,27.781,12.664A223.637,223.637,0,0,1,239.438,464.231Zm149.32-217.7a55.861,55.861,0,0,1,18.68,41.7c0,5.754-2.336,17.16-13.43,38.824a596.275,596.275,0,0,1-42.57,67.633c-7.527-10.488-20.48-29.105-32.07-48.672a295.8,295.8,0,0,1-17.281-33.3,66.68,66.68,0,0,1-6.648-24.48,56.063,56.063,0,0,1,56-56q2.6,0,5.152.234a55.5,55.5,0,0,1,32.168,14.063Zm74.4,4.609A220.393,220.393,0,0,1,440.629,338.7a121.674,121.674,0,0,0-28.094-13.09,94.778,94.778,0,0,0,10.9-37.375,72.3,72.3,0,0,0-40.3-64.656l-.5-.223c-1.789-.863-3.605-1.672-5.461-2.4-1.273-.5-2.594-.883-3.9-1.3-.8-.242-1.52-.543-2.3-.8-2.062-.586-4.16-1.062-6.27-1.457h-.105c-1.277-.238-2.574-.367-3.871-.535a71.5,71.5,0,0,0-81.3,71.367,82.362,82.362,0,0,0,7.922,30.746,295.149,295.149,0,0,0,15.152,29.8,147.464,147.464,0,0,0-13.7,17.473,41.643,41.643,0,0,1-8.23,10.074c-1.6-.242-4.566-3.656-9.6-18.625a82.074,82.074,0,0,1-3.367-35.246,42.791,42.791,0,0,0-5.711-30.875c-10.215-14.285-28.047-16.8-45.4-19.262a112.717,112.717,0,0,0-40.465,1.816c-10.234,1.957-14.984,2.688-20.418-.7a30.319,30.319,0,0,1-12.641-30.664c2.137-6.4,8.539-8.711,21.6-13a153.573,153.573,0,0,0,47.527-23.094c11.656-8.551,42.4-31.242,43.328-62.2.512-16.937-7.961-27.387-16.152-37.488a69.19,69.19,0,0,1-16.062-28.6c-4.25-17.824,1.016-38.727,15.3-62.152h.918a224.535,224.535,0,0,1,123.8,37.426,48.06,48.06,0,0,1-15.1,11.289,35.815,35.815,0,0,1-17.727,2.773,33.553,33.553,0,0,0-23.777,6.113c-18.141,13.656-26.27,48.48-9.965,74.633C308.278,167,328.1,171.321,349.75,176.04a83.76,83.76,0,0,0,35.328-.152,60.346,60.346,0,0,1,28.391.09,89.134,89.134,0,0,1,29.043,14.535,65.508,65.508,0,0,1,19.863,28.367c.656,7.066,1.063,14.152,1.063,21.352,0,3.578-.07,7.2-.312,10.906Zm0,0"/>
    <path id="Path_30" data-name="Path 30" class="cls-1" d="M111.438,96.23a32,32,0,1,0-32-32A32,32,0,0,0,111.438,96.23Zm0-48a16,16,0,1,1-16,16A16,16,0,0,1,111.438,48.23Zm0,0"/>
    <path id="Path_31" data-name="Path 31" class="cls-1" d="M319.438,280.23a32,32,0,1,0,32-32A32,32,0,0,0,319.438,280.23Zm48,0a16,16,0,1,1-16-16A16,16,0,0,1,367.438,280.23Zm0,0"/>
  </g>
</svg>
