<svg xmlns="http://www.w3.org/2000/svg" viewBox="0 0 496 496.001">
  <defs>
    <style>
      .cls-1 {
        fill: #586c7f;
      }
    </style>
  </defs>
  <g id="year" transform="translate(0)">
    <path id="Path_1" data-name="Path 1" class="cls-1" d="M154.672,294.383a31.951,31.951,0,0,1-44.289,44.289l-8.832,13.344a47.957,47.957,0,0,0,66.465-66.473Zm0,0"/>
    <path id="Path_2" data-name="Path 2" class="cls-1" d="M128,280a31.793,31.793,0,0,1,17.609,5.32l8.84-13.336a47.957,47.957,0,0,0-66.465,66.473l13.344-8.832A31.957,31.957,0,0,1,128,280Zm0,0"/>
    <path id="Path_3" data-name="Path 3" class="cls-1" d="M288,336v48h32V368H304V336Zm0,0"/>
    <path id="Path_4" data-name="Path 4" class="cls-1" d="M296,288a88.169,88.169,0,0,0-55.687,19.871l10.145,12.387A72.039,72.039,0,0,1,288,304.5V320h16V304.473A72.1,72.1,0,0,1,367.527,368H352v16h15.5a72.064,72.064,0,0,1-15.754,37.551l12.379,10.137A87.984,87.984,0,0,0,296,288Zm0,0"/>
    <path id="Path_5" data-name="Path 5" class="cls-1" d="M304,447.5V432H288v15.527A72.1,72.1,0,0,1,224.473,384H240V368H224.5a72.064,72.064,0,0,1,15.754-37.551l-12.379-10.137A87.988,87.988,0,0,0,351.688,444.129l-10.145-12.387A72.012,72.012,0,0,1,304,447.5Zm0,0"/>
    <path id="Path_6" data-name="Path 6" class="cls-1" d="M448,368H432V144H384V294.688a120.64,120.64,0,0,0-16-14.465V184H320v74.414a120.35,120.35,0,0,0-16-2.016V224H256v39a119.391,119.391,0,0,0-22.855,10.969,110.622,110.622,0,0,0-5.527-13.008l12.648-17.715-43.512-43.527-17.723,12.656a111.4,111.4,0,0,0-16.672-6.879L158.785,184H97.223l-3.574,21.5a111.4,111.4,0,0,0-16.672,6.879L59.258,199.719,15.742,243.247,28.39,260.962A109.951,109.951,0,0,0,21.5,277.633L0,281.223v61.555l21.5,3.582a110.759,110.759,0,0,0,6.887,16.672L15.734,380.743l43.512,43.531,17.723-12.656A111.4,111.4,0,0,0,93.641,418.5L97.215,440h61.563l3.574-21.5a111.4,111.4,0,0,0,16.672-6.879l3.2,2.285C198.152,461.536,243.09,496,296,496c63.473,0,115.449-49.559,119.594-112H496V80H448ZM400,160h16V368h-.406A119.073,119.073,0,0,0,400,316.391Zm-64,40h16v69.953a119,119,0,0,0-16-6.945Zm-64,40h16v16.406a119.71,119.71,0,0,0-16,2.02ZM175.641,395.266a95.192,95.192,0,0,1-22.449,9.27l-4.953,1.344L145.215,424H110.777l-3.023-18.121-4.953-1.344a95.327,95.327,0,0,1-22.449-9.27l-4.457-2.555L60.977,403.375,36.617,379.024,47.281,364.09l-2.555-4.457a95.054,95.054,0,0,1-9.27-22.441l-1.336-4.953L16,329.223V294.778l18.121-3.016,1.344-4.953a95.3,95.3,0,0,1,9.27-22.441l2.555-4.457L36.625,244.977l24.359-24.352L75.9,231.289l4.457-2.555a95.192,95.192,0,0,1,22.449-9.27l4.953-1.344L110.785,200h34.438l3.023,18.121,4.953,1.344a95.327,95.327,0,0,1,22.449,9.27l4.457,2.555,14.918-10.664,24.359,24.352-10.664,14.934,2.555,4.457a95.16,95.16,0,0,1,8.2,19.289,121.418,121.418,0,0,0-13.016,12.734,80.31,80.31,0,1,0-30.449,79.395c0,.07-.008.145-.008.215a119.743,119.743,0,0,0,1.527,18.184Zm16.16-78.555A119.377,119.377,0,0,0,178.656,351,63.915,63.915,0,1,1,192,312c0,1.594-.09,3.152-.2,4.711ZM296,480A104,104,0,1,1,400,376,104.12,104.12,0,0,1,296,480ZM464,96h16V368H464Zm0,0"/>
    <path id="Path_7" data-name="Path 7" class="cls-1" d="M448,0V16h17.191l-56.6,45.281L384,36.688,346.281,74.406A23.618,23.618,0,0,0,336,72a24.031,24.031,0,0,0-24,24,23.724,23.724,0,0,0,3,11.375L273.183,153.84A23.875,23.875,0,0,0,264,152c-.152,0-.289.039-.441.047L231.39,66.258a23.959,23.959,0,1,0-38.84-13.219L126.969,93.391A23.731,23.731,0,0,0,89.472,104H46.527a24,24,0,1,0,0,16H89.48a23.94,23.94,0,0,0,45.977-13.039l65.582-40.352A23.712,23.712,0,0,0,216,72c.152,0,.289-.039.441-.047l32.168,85.781A24.052,24.052,0,1,0,285,164.625l41.816-46.465A23.973,23.973,0,0,0,360,96a23.618,23.618,0,0,0-2.406-10.281L384,59.312l23.406,23.406L480,24.648V48h16V0ZM24,120a8,8,0,1,1,8-8A8.01,8.01,0,0,1,24,120Zm88,0a8,8,0,1,1,8-8A8.01,8.01,0,0,1,112,120Zm96-72a8,8,0,1,1,8,8A8.01,8.01,0,0,1,208,48Zm56,136a8,8,0,1,1,8-8A8.01,8.01,0,0,1,264,184Zm72-80a8,8,0,1,1,8-8A8.01,8.01,0,0,1,336,104Zm0,0"/>
  </g>
</svg>
